# Blender v2.79 (sub 0) OBJ File: 'chicken.blend'
# www.blender.org
mtllib chicken.mtl
o chicken
v -0.330508 0.230508 0.150000
v -0.330508 0.130509 -0.150000
v -0.330508 0.130509 0.150000
v -0.330508 0.230509 -0.150000
v -0.230509 -0.169492 0.250000
v -0.230509 0.330508 0.150000
v -0.230509 0.330508 0.050000
v -0.230509 0.330508 -0.050000
v -0.230509 0.330508 -0.150000
v -0.230509 0.430508 0.250000
v -0.230509 0.430508 0.050000
v -0.230509 0.430508 -0.050000
v -0.230509 0.530509 0.150000
v -0.230509 0.530509 0.050000
v -0.230509 0.530509 -0.050000
v -0.230509 0.830508 0.050000
v -0.130508 -0.469492 0.150000
v -0.130508 -0.469492 0.050000
v -0.130508 -0.469492 -0.050000
v -0.130508 -0.169492 0.250000
v -0.130508 -0.269491 -0.250000
v -0.130508 0.030509 0.250000
v -0.130508 -0.069492 -0.350000
v -0.030509 -0.169492 0.350000
v 0.069492 -0.269492 0.150000
v 0.069492 -0.269491 -0.050000
v 0.069492 -0.469492 -0.050000
v 0.069492 -0.269491 -0.150000
v -0.130508 0.730508 0.050000
v -0.030509 0.130509 0.250000
v -0.030509 0.130509 -0.250000
v -0.030509 0.430508 0.250000
v -0.030509 0.430508 0.150000
v -0.030509 0.530509 0.150000
v -0.030509 0.530509 0.050000
v -0.030509 0.530509 -0.050000
v -0.030509 0.530509 -0.150000
v -0.030509 0.730508 0.050000
v -0.030509 0.730508 -0.050000
v 0.169492 -0.469492 0.150000
v 0.169492 -0.469492 -0.050000
v 0.169492 -0.069492 0.350000
v 0.169492 0.030509 0.350000
v 0.169492 0.030509 0.250000
v 0.169492 -0.069492 -0.250000
v 0.169492 0.030509 -0.250000
v 0.269492 -0.569492 -0.150000
v 0.269492 -0.469492 -0.150000
v 0.269492 -0.169492 0.350000
v 0.269492 -0.169492 0.250000
v 0.269492 -0.069492 0.350000
v 0.269492 0.030509 -0.250000
v 0.269492 0.130509 -0.250000
v 0.369492 -0.269492 0.250000
v 0.369492 0.030509 -0.250000
v -0.130508 0.030509 0.350000
v -0.130508 -0.069492 0.250000
v 0.269492 -0.069492 0.250000
v 0.169492 -0.069492 0.250000
v -0.230509 0.430508 0.150000
v -0.130508 -0.569492 0.150000
v -0.130508 0.830508 0.050000
v 0.169492 -0.269491 -0.050000
v 0.269492 -0.469492 -0.050000
v -0.130508 -0.569492 0.050000
v 0.169492 -0.469492 0.050000
v 0.269492 -0.469492 0.050000
v -0.130508 0.730508 -0.050000
v -0.130508 0.830508 -0.050000
v -0.230509 0.130509 -0.150000
v -0.230509 0.230509 -0.150000
v -0.230509 0.530509 -0.150000
v -0.030509 0.430508 -0.150000
v 0.069492 -0.469492 -0.150000
v 0.169492 -0.469492 -0.150000
v 0.169492 -0.269491 -0.150000
v -0.230509 -0.169492 -0.250000
v -0.130508 -0.069492 -0.250000
v -0.130508 0.030509 -0.250000
v -0.030509 -0.169492 -0.250000
v -0.030509 -0.069492 -0.250000
v -0.030509 0.430508 -0.250000
v 0.269492 -0.169492 -0.250000
v 0.269492 -0.069492 -0.250000
v 0.369492 -0.269491 -0.250000
v -0.130508 0.030509 -0.350000
v -0.030509 -0.069492 -0.350000
v -0.030509 -0.169492 -0.350000
v 0.269492 -0.169492 -0.350000
v 0.269492 -0.569492 0.150000
v 0.269492 -0.569492 0.050000
v -0.130508 -0.569492 -0.150000
v 0.269492 -0.569492 -0.050000
v -0.130508 -0.569492 -0.050000
v -0.130508 -0.269492 0.250000
v 0.169492 -0.269492 0.150000
v 0.069492 -0.269491 0.050000
v 0.169492 -0.269491 0.050000
v -0.030509 -0.169492 0.250000
v -0.130508 -0.169492 -0.250000
v -0.030509 -0.069492 0.350000
v -0.130508 -0.069492 0.350000
v -0.030509 -0.069492 0.250000
v -0.230509 0.130509 0.150000
v 0.069492 -0.469492 0.150000
v 0.069492 -0.469492 0.050000
v 0.269492 -0.469492 0.150000
v -0.130508 -0.469492 -0.150000
v 0.169492 -0.069492 -0.350000
v 0.269492 -0.069492 -0.350000
v 0.269492 0.030509 0.250000
v 0.369492 0.030509 0.250000
v 0.169492 0.030509 -0.350000
v 0.269492 0.130509 0.250000
v -0.230509 0.230508 0.150000
v -0.230509 0.430508 -0.150000
v -0.230509 0.430508 -0.250000
v -0.230509 0.830508 -0.050000
vt 0.017578 0.500000
vt 0.017578 0.500000
vt 0.017578 0.500000
vt 0.017578 0.500000
vt 0.958984 0.500000
vt 0.958984 0.500000
vt 0.958984 0.500000
vt 0.958984 0.500000
vt 0.958984 0.500000
vt 0.958984 0.500000
vt 0.958984 0.500000
vt 0.958984 0.500000
vt 0.958984 0.500000
vt 0.958984 0.500000
vt 0.958984 0.500000
vt 0.994141 0.500000
vt 0.994141 0.500000
vt 0.994141 0.500000
vt 0.958984 0.500000
vt 0.958984 0.500000
vt 0.994141 0.500000
vt 0.994141 0.500000
vt 0.994141 0.500000
vt 0.994141 0.500000
vt 0.958984 0.500000
vt 0.958984 0.500000
vt 0.994141 0.500000
vt 0.958984 0.500000
vt 0.958984 0.500000
vt 0.958984 0.500000
vt 0.958984 0.500000
vt 0.958984 0.500000
vt 0.845703 0.500000
vt 0.845703 0.500000
vt 0.845703 0.500000
vt 0.845703 0.500000
vt 0.091797 0.500000
vt 0.091797 0.500000
vt 0.091797 0.500000
vt 0.091797 0.500000
vt 0.091797 0.500000
vt 0.091797 0.500000
vt 0.091797 0.500000
vt 0.091797 0.500000
vt 0.958984 0.500000
vt 0.958984 0.500000
vt 0.958984 0.500000
vt 0.958984 0.500000
vt 0.958984 0.500000
vt 0.958984 0.500000
vt 0.958984 0.500000
vt 0.958984 0.500000
vt 0.958984 0.500000
vt 0.958984 0.500000
vt 0.958984 0.500000
vt 0.958984 0.500000
vt 0.958984 0.500000
vt 0.958984 0.500000
vt 0.958984 0.500000
vt 0.958984 0.500000
vt 0.958984 0.500000
vt 0.958984 0.500000
vt 0.958984 0.500000
vt 0.958984 0.500000
vt 0.091797 0.500000
vt 0.091797 0.500000
vt 0.091797 0.500000
vt 0.091797 0.500000
vt 0.091797 0.500000
vt 0.091797 0.500000
vt 0.091797 0.500000
vt 0.091797 0.500000
vt 0.845703 0.500000
vt 0.845703 0.500000
vt 0.845703 0.500000
vt 0.845703 0.500000
vt 0.958984 0.500000
vt 0.958984 0.500000
vt 0.958984 0.500000
vt 0.958984 0.500000
vt 0.958984 0.500000
vt 0.958984 0.500000
vt 0.958984 0.500000
vt 0.958984 0.500000
vt 0.958984 0.500000
vt 0.958984 0.500000
vt 0.845703 0.500000
vt 0.845703 0.500000
vt 0.845703 0.500000
vt 0.845703 0.500000
vt 0.091797 0.500000
vt 0.091797 0.500000
vt 0.091797 0.500000
vt 0.091797 0.500000
vt 0.091797 0.500000
vt 0.091797 0.500000
vt 0.091797 0.500000
vt 0.091797 0.500000
vt 0.958984 0.500000
vt 0.958984 0.500000
vt 0.958984 0.500000
vt 0.958984 0.500000
vt 0.958984 0.500000
vt 0.958984 0.500000
vt 0.958984 0.500000
vt 0.958984 0.500000
vt 0.091797 0.500000
vt 0.091797 0.500000
vt 0.091797 0.500000
vt 0.091797 0.500000
vt 0.091797 0.500000
vt 0.091797 0.500000
vt 0.091797 0.500000
vt 0.091797 0.500000
vt 0.958984 0.500000
vt 0.958984 0.500000
vt 0.958984 0.500000
vt 0.958984 0.500000
vt 0.958984 0.500000
vt 0.958984 0.500000
vt 0.958984 0.500000
vt 0.958984 0.500000
vt 0.958984 0.500000
vt 0.958984 0.500000
vt 0.958984 0.500000
vt 0.958984 0.500000
vt 0.958984 0.500000
vt 0.958984 0.500000
vt 0.958984 0.500000
vt 0.958984 0.500000
vt 0.017578 0.500000
vt 0.017578 0.500000
vt 0.017578 0.500000
vt 0.017578 0.500000
vt 0.958984 0.500000
vt 0.958984 0.500000
vt 0.958984 0.500000
vt 0.958984 0.500000
vt 0.958984 0.500000
vt 0.958984 0.500000
vt 0.958984 0.500000
vt 0.958984 0.500000
vn -1.0000 0.0000 0.0000
vn 1.0000 0.0000 0.0000
vn 0.0000 0.0000 1.0000
vn 0.0000 0.0000 -1.0000
vn 0.0000 -1.0000 0.0000
vn 0.0000 1.0000 0.0000
usemtl palette
s off
f 1/1/1 2/2/1 3/3/1
f 4/4/1 2/2/1 1/1/1
f 104/5/1 77/6/1 5/7/1
f 70/8/1 77/6/1 104/5/1
f 115/9/1 104/5/1 5/7/1
f 71/10/1 77/6/1 70/8/1
f 6/11/1 115/9/1 5/7/1
f 6/11/1 71/10/1 115/9/1
f 7/12/1 71/10/1 6/11/1
f 8/13/1 71/10/1 7/12/1
f 9/14/1 77/6/1 71/10/1
f 9/14/1 71/10/1 8/13/1
f 10/15/1 6/11/1 5/7/1
f 60/16/1 7/17/1 6/18/1
f 60/19/1 6/11/1 10/15/1
f 11/20/1 8/13/1 7/12/1
f 11/21/1 7/17/1 60/16/1
f 12/22/1 9/23/1 8/24/1
f 12/25/1 8/13/1 11/20/1
f 116/26/1 77/6/1 9/14/1
f 116/27/1 9/23/1 12/22/1
f 117/28/1 77/6/1 116/26/1
f 13/29/1 12/25/1 11/20/1
f 13/29/1 116/26/1 12/25/1
f 13/29/1 11/20/1 60/19/1
f 14/30/1 116/26/1 13/29/1
f 15/31/1 116/26/1 14/30/1
f 72/32/1 116/26/1 15/31/1
f 16/33/1 15/34/1 14/35/1
f 118/36/1 15/34/1 16/33/1
f 17/37/1 65/38/1 61/39/1
f 18/40/1 65/38/1 17/37/1
f 19/41/1 92/42/1 94/43/1
f 108/44/1 92/42/1 19/41/1
f 20/45/1 21/46/1 95/47/1
f 100/48/1 21/46/1 20/45/1
f 56/49/1 57/50/1 102/51/1
f 22/52/1 57/50/1 56/49/1
f 79/53/1 23/54/1 78/55/1
f 86/56/1 23/54/1 79/53/1
f 101/57/1 99/58/1 24/59/1
f 103/60/1 99/58/1 101/57/1
f 81/61/1 88/62/1 80/63/1
f 87/64/1 88/62/1 81/61/1
f 25/65/1 106/66/1 105/67/1
f 97/68/1 106/66/1 25/65/1
f 26/69/1 74/70/1 27/71/1
f 28/72/1 74/70/1 26/69/1
f 29/73/2 68/74/2 62/75/2
f 62/75/2 68/74/2 69/76/2
f 30/77/2 31/78/2 32/79/2
f 32/79/2 31/78/2 33/80/2
f 33/80/2 31/78/2 73/81/2
f 73/81/2 31/78/2 82/82/2
f 33/80/2 73/81/2 34/83/2
f 34/83/2 73/81/2 35/84/2
f 35/84/2 73/81/2 36/85/2
f 36/85/2 73/81/2 37/86/2
f 35/87/2 36/88/2 38/89/2
f 38/89/2 36/88/2 39/90/2
f 40/91/2 66/92/2 96/93/2
f 96/93/2 66/92/2 98/94/2
f 41/95/2 75/96/2 63/97/2
f 63/97/2 75/96/2 76/98/2
f 42/99/2 59/100/2 43/101/2
f 43/101/2 59/100/2 44/102/2
f 45/103/2 109/104/2 46/105/2
f 46/105/2 109/104/2 113/106/2
f 90/107/2 91/108/2 107/109/2
f 107/109/2 91/108/2 67/110/2
f 93/111/2 47/112/2 64/113/2
f 64/113/2 47/112/2 48/114/2
f 49/115/2 50/116/2 51/117/2
f 51/117/2 50/116/2 58/118/2
f 83/119/2 89/120/2 84/121/2
f 84/121/2 89/120/2 110/122/2
f 111/123/2 52/124/2 114/125/2
f 114/125/2 52/124/2 53/126/2
f 54/127/2 85/128/2 112/129/2
f 112/129/2 85/128/2 55/130/2
f 101/57/3 56/49/3 102/51/3
f 42/99/3 56/49/3 101/57/3
f 42/99/3 101/57/3 24/59/3
f 43/101/3 56/49/3 42/99/3
f 49/115/3 42/99/3 24/59/3
f 51/117/3 42/99/3 49/115/3
f 20/45/3 10/15/3 5/7/3
f 57/50/3 10/15/3 20/45/3
f 22/52/3 10/15/3 57/50/3
f 99/58/3 20/45/3 95/47/3
f 99/58/3 57/50/3 20/45/3
f 103/60/3 57/50/3 99/58/3
f 30/77/3 10/15/3 22/52/3
f 32/79/3 10/15/3 30/77/3
f 44/102/3 30/77/3 22/52/3
f 50/116/3 99/58/3 95/47/3
f 58/118/3 44/102/3 59/100/3
f 111/123/3 30/77/3 44/102/3
f 111/123/3 44/102/3 58/118/3
f 114/125/3 30/77/3 111/123/3
f 54/127/3 50/116/3 95/47/3
f 54/127/3 58/118/3 50/116/3
f 54/127/3 111/123/3 58/118/3
f 112/129/3 111/123/3 54/127/3
f 104/131/3 1/1/3 3/3/3
f 115/132/3 1/1/3 104/131/3
f 33/80/3 13/29/3 60/19/3
f 34/83/3 13/29/3 33/80/3
f 105/67/3 17/37/3 61/39/3
f 40/91/3 105/67/3 61/39/3
f 40/91/3 25/65/3 105/67/3
f 96/93/3 25/65/3 40/91/3
f 90/107/3 40/91/3 61/39/3
f 107/109/3 40/91/3 90/107/3
f 29/73/3 16/33/3 14/35/3
f 62/75/3 16/33/3 29/73/3
f 35/87/3 29/73/3 14/35/3
f 38/89/3 29/73/3 35/87/3
f 27/71/3 19/41/3 94/43/3
f 41/95/3 27/71/3 94/43/3
f 41/95/3 26/69/3 27/71/3
f 63/97/3 26/69/3 41/95/3
f 93/111/3 41/95/3 94/43/3
f 64/113/3 41/95/3 93/111/3
f 65/38/4 18/40/4 106/66/4
f 65/38/4 106/66/4 66/92/4
f 106/66/4 97/68/4 66/92/4
f 66/92/4 97/68/4 98/94/4
f 65/38/4 66/92/4 91/108/4
f 91/108/4 66/92/4 67/110/4
f 15/34/4 118/36/4 68/74/4
f 68/74/4 118/36/4 69/76/4
f 15/34/4 68/74/4 36/88/4
f 36/88/4 68/74/4 39/90/4
f 2/2/4 4/4/4 70/133/4
f 70/133/4 4/4/4 71/134/4
f 116/26/4 72/32/4 73/81/4
f 73/81/4 72/32/4 37/86/4
f 92/42/4 108/44/4 74/70/4
f 92/42/4 74/70/4 75/96/4
f 74/70/4 28/72/4 75/96/4
f 75/96/4 28/72/4 76/98/4
f 92/42/4 75/96/4 47/112/4
f 47/112/4 75/96/4 48/114/4
f 77/6/4 117/28/4 100/48/4
f 100/48/4 117/28/4 78/55/4
f 78/55/4 117/28/4 79/53/4
f 21/46/4 100/48/4 80/63/4
f 100/48/4 78/55/4 80/63/4
f 80/63/4 78/55/4 81/61/4
f 79/53/4 117/28/4 31/78/4
f 31/78/4 117/28/4 82/82/4
f 79/53/4 31/78/4 46/105/4
f 21/46/4 80/63/4 83/119/4
f 45/103/4 46/105/4 84/121/4
f 46/105/4 31/78/4 52/124/4
f 84/121/4 46/105/4 52/124/4
f 52/124/4 31/78/4 53/126/4
f 21/46/4 83/119/4 85/128/4
f 83/119/4 84/121/4 85/128/4
f 84/121/4 52/124/4 85/128/4
f 85/128/4 52/124/4 55/130/4
f 23/54/4 86/56/4 87/64/4
f 87/64/4 86/56/4 109/104/4
f 88/62/4 87/64/4 109/104/4
f 109/104/4 86/56/4 113/106/4
f 88/62/4 109/104/4 89/120/4
f 89/120/4 109/104/4 110/122/4
f 65/38/5 90/107/5 61/39/5
f 91/108/5 90/107/5 65/38/5
f 92/42/5 93/111/5 94/43/5
f 47/112/5 93/111/5 92/42/5
f 25/135/5 54/127/5 95/47/5
f 96/136/5 54/127/5 25/135/5
f 97/137/5 25/135/5 95/47/5
f 98/138/5 54/127/5 96/136/5
f 26/139/5 97/137/5 95/47/5
f 26/139/5 98/138/5 97/137/5
f 63/140/5 54/127/5 98/138/5
f 63/140/5 98/138/5 26/139/5
f 28/141/5 26/139/5 95/47/5
f 76/142/5 54/127/5 63/140/5
f 21/46/5 28/141/5 95/47/5
f 21/46/5 76/142/5 28/141/5
f 85/128/5 54/127/5 76/142/5
f 85/128/5 76/142/5 21/46/5
f 99/58/5 49/115/5 24/59/5
f 50/116/5 49/115/5 99/58/5
f 77/6/5 20/45/5 5/7/5
f 100/48/5 20/45/5 77/6/5
f 88/62/5 83/119/5 80/63/5
f 89/120/5 83/119/5 88/62/5
f 57/50/5 101/57/5 102/51/5
f 103/60/5 101/57/5 57/50/5
f 23/54/5 81/61/5 78/55/5
f 87/64/5 81/61/5 23/54/5
f 2/2/5 104/131/5 3/3/5
f 70/133/5 104/131/5 2/2/5
f 17/37/6 105/67/6 18/40/6
f 18/40/6 105/67/6 106/66/6
f 40/91/6 107/109/6 66/92/6
f 66/92/6 107/109/6 67/110/6
f 19/41/6 27/71/6 108/44/6
f 108/44/6 27/71/6 74/70/6
f 41/95/6 64/113/6 75/96/6
f 75/96/6 64/113/6 48/114/6
f 42/99/6 51/117/6 59/100/6
f 59/100/6 51/117/6 58/118/6
f 45/103/6 84/121/6 109/104/6
f 109/104/6 84/121/6 110/122/6
f 56/49/6 43/101/6 22/52/6
f 22/52/6 43/101/6 44/102/6
f 111/123/6 112/129/6 52/124/6
f 52/124/6 112/129/6 55/130/6
f 79/53/6 46/105/6 86/56/6
f 86/56/6 46/105/6 113/106/6
f 30/77/6 114/125/6 31/78/6
f 31/78/6 114/125/6 53/126/6
f 1/1/6 115/132/6 4/4/6
f 4/4/6 115/132/6 71/134/6
f 10/15/6 32/79/6 60/19/6
f 60/19/6 32/79/6 33/80/6
f 116/26/6 73/81/6 117/28/6
f 117/28/6 73/81/6 82/82/6
f 13/29/6 34/83/6 14/30/6
f 14/30/6 34/83/6 35/84/6
f 15/31/6 36/85/6 72/32/6
f 72/32/6 36/85/6 37/86/6
f 29/73/6 38/89/6 68/74/6
f 68/74/6 38/89/6 39/90/6
f 16/33/6 62/75/6 118/36/6
f 118/36/6 62/75/6 69/76/6
