# Blender v2.79 (sub 0) OBJ File: ''
# www.blender.org
mtllib grass1.mtl
o grass1
v -5.823809 0.709524 0.252381
v -5.723809 -0.790476 0.152381
v -5.723809 -1.290476 0.152381
v -5.723809 -0.790476 -0.147619
v -5.723809 0.809524 -0.147619
v -3.223809 0.709524 0.252381
v -3.223809 0.609524 -0.247619
v -3.223809 0.609524 0.252381
v -3.123809 -0.790476 -0.147619
v -3.123809 0.809524 0.152381
v 0.276190 0.609524 -0.347619
v 0.376191 0.709524 0.252381
v 0.376191 0.609524 0.252381
v 0.376191 0.709524 -0.247619
v 0.476191 -0.790476 0.152381
v 0.476191 -1.290476 -0.147619
v 2.576191 0.609524 0.352381
v 2.676191 0.709524 0.252381
v 2.676191 0.609524 -0.247619
v 2.776191 -1.290476 -0.147619
v 2.776191 -1.290476 0.152381
v 2.776191 0.809524 -0.147619
v 4.676191 0.609524 0.352381
v 4.676191 -0.790476 0.352381
v 4.876191 -1.290476 0.152381
v 4.876191 0.809524 0.152381
v 4.876191 0.709524 0.152381
v -5.423809 0.709524 0.152381
v -5.423809 0.809524 0.152381
v -5.423809 0.809524 -0.147619
v -5.323809 0.609524 0.252381
v -5.323809 0.609524 -0.247619
v -5.323809 0.709524 -0.247619
v -5.223809 0.609524 0.352381
v -2.823809 -0.790476 -0.147619
v -2.823809 0.709524 -0.147619
v 0.776190 -0.790476 0.152381
v 0.776190 0.809524 0.152381
v 0.776190 0.809524 -0.147619
v 0.876191 0.609524 0.252381
v 0.976191 0.609524 -0.347619
v 3.076191 -1.290476 0.152381
v 3.076191 0.709524 0.152381
v 3.076191 0.709524 -0.147619
v 3.076191 0.809524 0.152381
v 3.076191 0.809524 -0.147619
v 3.176191 0.709524 0.252381
v 5.176191 -1.290476 -0.147619
v 5.176191 -0.790476 -0.147619
v 5.176191 0.809524 0.152381
v 5.276191 0.609524 0.252381
v 5.276191 0.609524 -0.247619
v 5.276191 0.709524 0.252381
v 5.376191 -0.790476 -0.347619
v 5.376191 0.609524 0.352381
v 6.176191 -1.590476 0.652381
v 6.176191 -1.590476 -0.747619
v -6.423809 -1.290476 0.652381
v -6.423809 -1.590476 0.652381
v -5.223809 -0.790476 0.352381
v -5.923809 0.609524 0.352381
v -5.923809 -0.790476 0.352381
v -3.323809 0.609524 0.352381
v -3.323809 -0.790476 0.352381
v -2.623809 0.609524 0.352381
v 0.976191 -0.790476 0.352381
v 0.276190 -0.790476 0.352381
v 0.976191 0.609524 0.352381
v 3.276191 -0.790476 0.352381
v 2.576191 -0.790476 0.352381
v 5.376191 -0.790476 0.352381
v -2.723809 0.609524 0.252381
v -2.723809 0.709524 0.252381
v 4.776191 0.709524 0.252381
v -5.423809 -0.790476 0.152381
v -5.723809 0.809524 0.152381
v -2.823809 -1.290476 0.152381
v -3.123809 -1.290476 0.152381
v -2.823809 0.709524 0.152381
v -3.123809 0.709524 0.152381
v -2.823809 0.809524 0.152381
v 0.776190 -1.290476 0.152381
v 0.776190 0.709524 0.152381
v 2.776191 -0.790476 0.152381
v 3.076191 -0.790476 0.152381
v 4.876191 -0.790476 0.152381
v 5.176191 0.709524 0.152381
v -5.723809 -1.290476 -0.147619
v -5.423809 -0.790476 -0.147619
v -5.723809 0.709524 -0.147619
v -5.423809 0.709524 -0.147619
v -3.123809 0.709524 -0.147619
v -3.123809 0.809524 -0.147619
v 0.476191 -0.790476 -0.147619
v 0.776190 -0.790476 -0.147619
v 0.476191 0.809524 -0.147619
v 2.776191 -0.790476 -0.147619
v 3.076191 -1.290476 -0.147619
v 2.776191 0.709524 -0.147619
v 4.876191 -0.790476 -0.147619
v 4.876191 0.709524 -0.147619
v 5.176191 0.809524 -0.147619
v -5.823809 0.709524 -0.247619
v -3.223809 0.709524 -0.247619
v -2.723809 0.609524 -0.247619
v 0.376191 0.609524 -0.247619
v 3.176191 0.609524 -0.247619
v 4.776191 0.709524 -0.247619
v 5.276191 0.709524 -0.247619
v -5.923809 -0.790476 -0.347619
v -5.223809 -0.790476 -0.347619
v 0.276190 -0.790476 -0.347619
v 2.576191 -0.790476 -0.347619
v 3.276191 -0.790476 -0.347619
v 4.676191 -0.790476 -0.347619
v 5.376191 0.609524 -0.347619
v -6.423809 -1.590476 -0.747619
v -6.423809 -1.290476 -0.747619
v -3.123809 -0.790476 0.152381
v -2.623809 -0.790476 0.352381
v -2.823809 -0.790476 0.152381
v 5.176191 -0.790476 0.152381
v 3.076191 -0.790476 -0.147619
v -3.323809 -0.790476 -0.347619
v -2.623809 -0.790476 -0.347619
v 0.976191 -0.790476 -0.347619
v 6.176191 -1.290476 0.652381
v -5.423809 -1.290476 0.152381
v 0.476191 -1.290476 0.152381
v 5.176191 -1.290476 0.152381
v -5.423809 -1.290476 -0.147619
v -3.123809 -1.290476 -0.147619
v -2.823809 -1.290476 -0.147619
v 0.776190 -1.290476 -0.147619
v 4.876191 -1.290476 -0.147619
v 6.176191 -1.290476 -0.747619
v -5.823809 0.609524 0.252381
v 0.276190 0.609524 0.352381
v 3.276191 0.609524 0.352381
v 2.676191 0.609524 0.252381
v 3.176191 0.609524 0.252381
v 4.776191 0.609524 0.252381
v -5.823809 0.609524 -0.247619
v 0.876191 0.609524 -0.247619
v 4.776191 0.609524 -0.247619
v -5.923809 0.609524 -0.347619
v -5.223809 0.609524 -0.347619
v -3.323809 0.609524 -0.347619
v -2.623809 0.609524 -0.347619
v 2.576191 0.609524 -0.347619
v 3.276191 0.609524 -0.347619
v 4.676191 0.609524 -0.347619
v -5.323809 0.709524 0.252381
v -5.723809 0.709524 0.152381
v 0.876191 0.709524 0.252381
v 0.476191 0.709524 0.152381
v 2.776191 0.709524 0.152381
v 0.476191 0.709524 -0.147619
v 0.776190 0.709524 -0.147619
v 5.176191 0.709524 -0.147619
v -2.723809 0.709524 -0.247619
v 0.876191 0.709524 -0.247619
v 2.676191 0.709524 -0.247619
v 3.176191 0.709524 -0.247619
v -2.823809 0.809524 -0.147619
v 0.476191 0.809524 0.152381
v 2.776191 0.809524 0.152381
v 4.876191 0.809524 -0.147619
vt 0.880859 0.500000
vt 0.880859 0.500000
vt 0.880859 0.500000
vt 0.880859 0.500000
vt 0.904297 0.500000
vt 0.904297 0.500000
vt 0.904297 0.500000
vt 0.904297 0.500000
vt 0.904297 0.500000
vt 0.904297 0.500000
vt 0.904297 0.500000
vt 0.904297 0.500000
vt 0.513672 0.500000
vt 0.513672 0.500000
vt 0.513672 0.500000
vt 0.513672 0.500000
vt 0.904297 0.500000
vt 0.904297 0.500000
vt 0.904297 0.500000
vt 0.904297 0.500000
vt 0.904297 0.500000
vt 0.904297 0.500000
vt 0.904297 0.500000
vt 0.904297 0.500000
vt 0.904297 0.500000
vt 0.904297 0.500000
vt 0.904297 0.500000
vt 0.904297 0.500000
vt 0.513672 0.500000
vt 0.513672 0.500000
vt 0.513672 0.500000
vt 0.513672 0.500000
vt 0.904297 0.500000
vt 0.904297 0.500000
vt 0.904297 0.500000
vt 0.904297 0.500000
vt 0.904297 0.500000
vt 0.904297 0.500000
vt 0.904297 0.500000
vt 0.904297 0.500000
vt 0.904297 0.500000
vt 0.904297 0.500000
vt 0.904297 0.500000
vt 0.904297 0.500000
vt 0.513672 0.500000
vt 0.513672 0.500000
vt 0.513672 0.500000
vt 0.513672 0.500000
vt 0.904297 0.500000
vt 0.904297 0.500000
vt 0.904297 0.500000
vt 0.904297 0.500000
vt 0.904297 0.500000
vt 0.904297 0.500000
vt 0.904297 0.500000
vt 0.904297 0.500000
vt 0.904297 0.500000
vt 0.904297 0.500000
vt 0.904297 0.500000
vt 0.904297 0.500000
vt 0.513672 0.500000
vt 0.513672 0.500000
vt 0.513672 0.500000
vt 0.513672 0.500000
vt 0.904297 0.500000
vt 0.904297 0.500000
vt 0.904297 0.500000
vt 0.904297 0.500000
vt 0.904297 0.500000
vt 0.904297 0.500000
vt 0.904297 0.500000
vt 0.904297 0.500000
vt 0.904297 0.500000
vt 0.904297 0.500000
vt 0.904297 0.500000
vt 0.904297 0.500000
vt 0.513672 0.500000
vt 0.513672 0.500000
vt 0.513672 0.500000
vt 0.513672 0.500000
vt 0.904297 0.500000
vt 0.904297 0.500000
vt 0.904297 0.500000
vt 0.904297 0.500000
vt 0.513672 0.500000
vt 0.513672 0.500000
vt 0.513672 0.500000
vt 0.513672 0.500000
vt 0.904297 0.500000
vt 0.904297 0.500000
vt 0.904297 0.500000
vt 0.904297 0.500000
vt 0.904297 0.500000
vt 0.904297 0.500000
vt 0.904297 0.500000
vt 0.904297 0.500000
vt 0.904297 0.500000
vt 0.904297 0.500000
vt 0.904297 0.500000
vt 0.904297 0.500000
vt 0.513672 0.500000
vt 0.513672 0.500000
vt 0.513672 0.500000
vt 0.513672 0.500000
vt 0.904297 0.500000
vt 0.904297 0.500000
vt 0.904297 0.500000
vt 0.904297 0.500000
vt 0.904297 0.500000
vt 0.904297 0.500000
vt 0.904297 0.500000
vt 0.904297 0.500000
vt 0.904297 0.500000
vt 0.904297 0.500000
vt 0.904297 0.500000
vt 0.904297 0.500000
vt 0.513672 0.500000
vt 0.513672 0.500000
vt 0.513672 0.500000
vt 0.513672 0.500000
vt 0.904297 0.500000
vt 0.904297 0.500000
vt 0.904297 0.500000
vt 0.904297 0.500000
vt 0.904297 0.500000
vt 0.904297 0.500000
vt 0.904297 0.500000
vt 0.904297 0.500000
vt 0.904297 0.500000
vt 0.904297 0.500000
vt 0.904297 0.500000
vt 0.904297 0.500000
vt 0.513672 0.500000
vt 0.513672 0.500000
vt 0.513672 0.500000
vt 0.513672 0.500000
vt 0.904297 0.500000
vt 0.904297 0.500000
vt 0.904297 0.500000
vt 0.904297 0.500000
vt 0.904297 0.500000
vt 0.904297 0.500000
vt 0.904297 0.500000
vt 0.904297 0.500000
vt 0.904297 0.500000
vt 0.904297 0.500000
vt 0.904297 0.500000
vt 0.904297 0.500000
vt 0.513672 0.500000
vt 0.513672 0.500000
vt 0.513672 0.500000
vt 0.513672 0.500000
vt 0.904297 0.500000
vt 0.904297 0.500000
vt 0.904297 0.500000
vt 0.904297 0.500000
vt 0.904297 0.500000
vt 0.904297 0.500000
vt 0.904297 0.500000
vt 0.904297 0.500000
vt 0.904297 0.500000
vt 0.904297 0.500000
vt 0.904297 0.500000
vt 0.904297 0.500000
vt 0.880859 0.500000
vt 0.880859 0.500000
vt 0.880859 0.500000
vt 0.880859 0.500000
vt 0.904297 0.500000
vt 0.904297 0.500000
vt 0.904297 0.500000
vt 0.904297 0.500000
vt 0.904297 0.500000
vt 0.904297 0.500000
vt 0.904297 0.500000
vt 0.904297 0.500000
vt 0.904297 0.500000
vt 0.904297 0.500000
vt 0.904297 0.500000
vt 0.904297 0.500000
vt 0.904297 0.500000
vt 0.904297 0.500000
vt 0.904297 0.500000
vt 0.904297 0.500000
vt 0.904297 0.500000
vt 0.904297 0.500000
vt 0.904297 0.500000
vt 0.904297 0.500000
vt 0.880859 0.500000
vt 0.880859 0.500000
vt 0.880859 0.500000
vt 0.880859 0.500000
vt 0.880859 0.500000
vt 0.880859 0.500000
vt 0.880859 0.500000
vt 0.880859 0.500000
vt 0.880859 0.500000
vt 0.880859 0.500000
vt 0.880859 0.500000
vt 0.880859 0.500000
vt 0.880859 0.500000
vt 0.880859 0.500000
vt 0.880859 0.500000
vt 0.880859 0.500000
vt 0.880859 0.500000
vt 0.880859 0.500000
vt 0.880859 0.500000
vt 0.880859 0.500000
vn -1.0000 0.0000 0.0000
vn 1.0000 0.0000 0.0000
vn 0.0000 0.0000 1.0000
vn 0.0000 0.0000 -1.0000
vn 0.0000 -1.0000 0.0000
vn 0.0000 1.0000 0.0000
usemtl palette
s off
f 58/1/1 117/2/1 59/3/1
f 118/4/1 117/2/1 58/1/1
f 61/5/1 110/6/1 62/7/1
f 146/8/1 110/6/1 61/5/1
f 1/9/1 143/10/1 137/11/1
f 103/12/1 143/10/1 1/9/1
f 2/13/1 88/14/1 3/15/1
f 4/16/1 88/14/1 2/13/1
f 76/17/1 90/18/1 154/19/1
f 5/20/1 90/18/1 76/17/1
f 63/21/1 124/22/1 64/23/1
f 148/24/1 124/22/1 63/21/1
f 6/25/1 7/26/1 8/27/1
f 104/28/1 7/26/1 6/25/1
f 119/29/1 132/30/1 78/31/1
f 9/32/1 132/30/1 119/29/1
f 10/33/1 92/34/1 80/35/1
f 93/36/1 92/34/1 10/33/1
f 138/37/1 112/38/1 67/39/1
f 11/40/1 112/38/1 138/37/1
f 12/41/1 106/42/1 13/43/1
f 14/44/1 106/42/1 12/41/1
f 15/45/1 16/46/1 129/47/1
f 94/48/1 16/46/1 15/45/1
f 166/49/1 158/50/1 156/51/1
f 96/52/1 158/50/1 166/49/1
f 17/53/1 113/54/1 70/55/1
f 150/56/1 113/54/1 17/53/1
f 18/57/1 19/58/1 140/59/1
f 163/60/1 19/58/1 18/57/1
f 84/61/1 20/62/1 21/63/1
f 97/64/1 20/62/1 84/61/1
f 167/65/1 99/66/1 157/67/1
f 22/68/1 99/66/1 167/65/1
f 23/69/1 115/70/1 24/71/1
f 152/72/1 115/70/1 23/69/1
f 74/73/1 145/74/1 142/75/1
f 108/76/1 145/74/1 74/73/1
f 86/77/1 135/78/1 25/79/1
f 100/80/1 135/78/1 86/77/1
f 26/81/1 101/82/1 27/83/1
f 168/84/1 101/82/1 26/81/1
f 128/85/2 131/86/2 75/87/2
f 75/87/2 131/86/2 89/88/2
f 28/89/2 91/90/2 29/91/2
f 29/91/2 91/90/2 30/92/2
f 31/93/2 32/94/2 153/95/2
f 153/95/2 32/94/2 33/96/2
f 60/97/2 111/98/2 34/99/2
f 34/99/2 111/98/2 147/100/2
f 77/101/2 133/102/2 121/103/2
f 121/103/2 133/102/2 35/104/2
f 79/105/2 36/106/2 81/107/2
f 81/107/2 36/106/2 165/108/2
f 72/109/2 105/110/2 73/111/2
f 73/111/2 105/110/2 161/112/2
f 120/113/2 125/114/2 65/115/2
f 65/115/2 125/114/2 149/116/2
f 82/117/2 134/118/2 37/119/2
f 37/119/2 134/118/2 95/120/2
f 83/121/2 159/122/2 38/123/2
f 38/123/2 159/122/2 39/124/2
f 40/125/2 144/126/2 155/127/2
f 155/127/2 144/126/2 162/128/2
f 66/129/2 126/130/2 68/131/2
f 68/131/2 126/130/2 41/132/2
f 42/133/2 98/134/2 85/135/2
f 85/135/2 98/134/2 123/136/2
f 43/137/2 44/138/2 45/139/2
f 45/139/2 44/138/2 46/140/2
f 141/141/2 107/142/2 47/143/2
f 47/143/2 107/142/2 164/144/2
f 69/145/2 114/146/2 139/147/2
f 139/147/2 114/146/2 151/148/2
f 130/149/2 48/150/2 122/151/2
f 122/151/2 48/150/2 49/152/2
f 87/153/2 160/154/2 50/155/2
f 50/155/2 160/154/2 102/156/2
f 51/157/2 52/158/2 53/159/2
f 53/159/2 52/158/2 109/160/2
f 71/161/2 54/162/2 55/163/2
f 55/163/2 54/162/2 116/164/2
f 56/165/2 57/166/2 127/167/2
f 127/167/2 57/166/2 136/168/2
f 56/165/3 58/1/3 59/3/3
f 127/167/3 58/1/3 56/165/3
f 60/97/3 61/5/3 62/7/3
f 34/99/3 61/5/3 60/97/3
f 120/113/3 63/21/3 64/23/3
f 65/115/3 63/21/3 120/113/3
f 66/129/3 138/37/3 67/39/3
f 68/131/3 138/37/3 66/129/3
f 69/145/3 17/53/3 70/55/3
f 139/147/3 17/53/3 69/145/3
f 71/161/3 23/69/3 24/71/3
f 55/163/3 23/69/3 71/161/3
f 31/93/3 1/9/3 137/11/3
f 153/95/3 1/9/3 31/93/3
f 72/109/3 6/25/3 8/27/3
f 73/111/3 6/25/3 72/109/3
f 40/125/3 12/41/3 13/43/3
f 155/127/3 12/41/3 40/125/3
f 141/141/3 18/57/3 140/59/3
f 47/143/3 18/57/3 141/141/3
f 51/157/3 74/73/3 142/75/3
f 53/159/3 74/73/3 51/157/3
f 128/85/3 2/13/3 3/15/3
f 75/87/3 2/13/3 128/85/3
f 28/89/3 76/17/3 154/19/3
f 29/91/3 76/17/3 28/89/3
f 77/101/3 119/29/3 78/31/3
f 121/103/3 119/29/3 77/101/3
f 79/105/3 10/33/3 80/35/3
f 81/107/3 10/33/3 79/105/3
f 82/117/3 15/45/3 129/47/3
f 37/119/3 15/45/3 82/117/3
f 83/121/3 166/49/3 156/51/3
f 38/123/3 166/49/3 83/121/3
f 42/133/3 84/61/3 21/63/3
f 85/135/3 84/61/3 42/133/3
f 43/137/3 167/65/3 157/67/3
f 45/139/3 167/65/3 43/137/3
f 130/149/3 86/77/3 25/79/3
f 122/151/3 86/77/3 130/149/3
f 87/153/3 26/81/3 27/83/3
f 50/155/3 26/81/3 87/153/3
f 88/14/4 4/16/4 131/86/4
f 131/86/4 4/16/4 89/88/4
f 90/18/4 5/20/4 91/90/4
f 91/90/4 5/20/4 30/92/4
f 132/30/4 9/32/4 133/102/4
f 133/102/4 9/32/4 35/104/4
f 92/34/4 93/36/4 36/106/4
f 36/106/4 93/36/4 165/108/4
f 16/46/4 94/48/4 134/118/4
f 134/118/4 94/48/4 95/120/4
f 158/50/4 96/52/4 159/122/4
f 159/122/4 96/52/4 39/124/4
f 20/62/4 97/64/4 98/134/4
f 98/134/4 97/64/4 123/136/4
f 99/66/4 22/68/4 44/138/4
f 44/138/4 22/68/4 46/140/4
f 135/78/4 100/80/4 48/150/4
f 48/150/4 100/80/4 49/152/4
f 101/82/4 168/84/4 160/154/4
f 160/154/4 168/84/4 102/156/4
f 143/10/4 103/12/4 32/94/4
f 32/94/4 103/12/4 33/96/4
f 7/26/4 104/28/4 105/110/4
f 105/110/4 104/28/4 161/112/4
f 106/42/4 14/44/4 144/126/4
f 144/126/4 14/44/4 162/128/4
f 19/58/4 163/60/4 107/142/4
f 107/142/4 163/60/4 164/144/4
f 145/74/4 108/76/4 52/158/4
f 52/158/4 108/76/4 109/160/4
f 110/6/4 146/8/4 111/98/4
f 111/98/4 146/8/4 147/100/4
f 124/22/4 148/24/4 125/114/4
f 125/114/4 148/24/4 149/116/4
f 112/38/4 11/40/4 126/130/4
f 126/130/4 11/40/4 41/132/4
f 113/54/4 150/56/4 114/146/4
f 114/146/4 150/56/4 151/148/4
f 115/70/4 152/72/4 54/162/4
f 54/162/4 152/72/4 116/164/4
f 117/2/4 118/4/4 57/166/4
f 57/166/4 118/4/4 136/168/4
f 117/2/5 56/165/5 59/3/5
f 57/166/5 56/165/5 117/2/5
f 2/169/5 60/97/5 62/7/5
f 75/170/5 60/97/5 2/169/5
f 119/171/5 120/113/5 64/23/5
f 121/172/5 120/113/5 119/171/5
f 15/173/5 66/129/5 67/39/5
f 37/174/5 66/129/5 15/173/5
f 84/175/5 69/145/5 70/55/5
f 85/176/5 69/145/5 84/175/5
f 86/177/5 71/161/5 24/71/5
f 122/178/5 71/161/5 86/177/5
f 4/179/5 2/169/5 62/7/5
f 89/180/5 60/97/5 75/170/5
f 9/181/5 119/171/5 64/23/5
f 35/182/5 120/113/5 121/172/5
f 94/183/5 15/173/5 67/39/5
f 95/184/5 66/129/5 37/174/5
f 97/185/5 84/175/5 70/55/5
f 123/186/5 69/145/5 85/176/5
f 100/187/5 86/177/5 24/71/5
f 49/188/5 71/161/5 122/178/5
f 110/6/5 4/179/5 62/7/5
f 110/6/5 89/180/5 4/179/5
f 111/98/5 60/97/5 89/180/5
f 111/98/5 89/180/5 110/6/5
f 124/22/5 9/181/5 64/23/5
f 124/22/5 35/182/5 9/181/5
f 125/114/5 120/113/5 35/182/5
f 125/114/5 35/182/5 124/22/5
f 112/38/5 94/183/5 67/39/5
f 112/38/5 95/184/5 94/183/5
f 126/130/5 66/129/5 95/184/5
f 126/130/5 95/184/5 112/38/5
f 113/54/5 97/185/5 70/55/5
f 113/54/5 123/186/5 97/185/5
f 114/146/5 69/145/5 123/186/5
f 114/146/5 123/186/5 113/54/5
f 115/70/5 49/188/5 100/187/5
f 115/70/5 100/187/5 24/71/5
f 54/162/5 71/161/5 49/188/5
f 54/162/5 49/188/5 115/70/5
f 58/1/6 127/167/6 3/189/6
f 3/189/6 127/167/6 128/190/6
f 128/190/6 127/167/6 78/191/6
f 78/191/6 127/167/6 77/192/6
f 77/192/6 127/167/6 129/193/6
f 129/193/6 127/167/6 82/194/6
f 82/194/6 127/167/6 21/195/6
f 21/195/6 127/167/6 42/196/6
f 42/196/6 127/167/6 25/197/6
f 25/197/6 127/167/6 130/198/6
f 58/1/6 3/189/6 88/199/6
f 128/190/6 78/191/6 131/200/6
f 131/200/6 78/191/6 132/201/6
f 77/192/6 129/193/6 133/202/6
f 133/202/6 129/193/6 16/203/6
f 82/194/6 21/195/6 134/204/6
f 134/204/6 21/195/6 20/205/6
f 42/196/6 25/197/6 98/206/6
f 98/206/6 25/197/6 135/207/6
f 130/198/6 127/167/6 48/208/6
f 98/206/6 135/207/6 118/4/6
f 135/207/6 48/208/6 118/4/6
f 134/204/6 20/205/6 118/4/6
f 58/1/6 88/199/6 118/4/6
f 20/205/6 98/206/6 118/4/6
f 133/202/6 16/203/6 118/4/6
f 16/203/6 134/204/6 118/4/6
f 131/200/6 132/201/6 118/4/6
f 132/201/6 133/202/6 118/4/6
f 88/199/6 131/200/6 118/4/6
f 48/208/6 127/167/6 136/168/6
f 118/4/6 48/208/6 136/168/6
f 61/5/6 34/99/6 137/11/6
f 137/11/6 34/99/6 31/93/6
f 63/21/6 65/115/6 8/27/6
f 8/27/6 65/115/6 72/109/6
f 138/37/6 68/131/6 13/43/6
f 13/43/6 68/131/6 40/125/6
f 17/53/6 139/147/6 140/59/6
f 140/59/6 139/147/6 141/141/6
f 23/69/6 55/163/6 142/75/6
f 142/75/6 55/163/6 51/157/6
f 61/5/6 137/11/6 143/10/6
f 31/93/6 34/99/6 32/94/6
f 63/21/6 8/27/6 7/26/6
f 72/109/6 65/115/6 105/110/6
f 138/37/6 13/43/6 106/42/6
f 40/125/6 68/131/6 144/126/6
f 17/53/6 140/59/6 19/58/6
f 141/141/6 139/147/6 107/142/6
f 23/69/6 142/75/6 145/74/6
f 51/157/6 55/163/6 52/158/6
f 61/5/6 143/10/6 146/8/6
f 143/10/6 32/94/6 146/8/6
f 32/94/6 34/99/6 147/100/6
f 146/8/6 32/94/6 147/100/6
f 63/21/6 7/26/6 148/24/6
f 7/26/6 105/110/6 148/24/6
f 105/110/6 65/115/6 149/116/6
f 148/24/6 105/110/6 149/116/6
f 138/37/6 106/42/6 11/40/6
f 106/42/6 144/126/6 11/40/6
f 144/126/6 68/131/6 41/132/6
f 11/40/6 144/126/6 41/132/6
f 17/53/6 19/58/6 150/56/6
f 19/58/6 107/142/6 150/56/6
f 107/142/6 139/147/6 151/148/6
f 150/56/6 107/142/6 151/148/6
f 145/74/6 52/158/6 152/72/6
f 23/69/6 145/74/6 152/72/6
f 52/158/6 55/163/6 116/164/6
f 152/72/6 52/158/6 116/164/6
f 1/9/6 153/95/6 154/19/6
f 154/19/6 153/95/6 28/89/6
f 6/25/6 73/111/6 80/35/6
f 80/35/6 73/111/6 79/105/6
f 12/41/6 155/127/6 156/51/6
f 156/51/6 155/127/6 83/121/6
f 18/57/6 47/143/6 157/67/6
f 157/67/6 47/143/6 43/137/6
f 74/73/6 53/159/6 27/83/6
f 27/83/6 53/159/6 87/153/6
f 1/9/6 154/19/6 90/18/6
f 28/89/6 153/95/6 91/90/6
f 6/25/6 80/35/6 92/34/6
f 79/105/6 73/111/6 36/106/6
f 12/41/6 156/51/6 158/50/6
f 83/121/6 155/127/6 159/122/6
f 18/57/6 157/67/6 99/66/6
f 43/137/6 47/143/6 44/138/6
f 74/73/6 27/83/6 101/82/6
f 87/153/6 53/159/6 160/154/6
f 1/9/6 90/18/6 103/12/6
f 90/18/6 91/90/6 103/12/6
f 91/90/6 153/95/6 33/96/6
f 103/12/6 91/90/6 33/96/6
f 6/25/6 92/34/6 104/28/6
f 92/34/6 36/106/6 104/28/6
f 36/106/6 73/111/6 161/112/6
f 104/28/6 36/106/6 161/112/6
f 12/41/6 158/50/6 14/44/6
f 158/50/6 159/122/6 14/44/6
f 159/122/6 155/127/6 162/128/6
f 14/44/6 159/122/6 162/128/6
f 18/57/6 99/66/6 163/60/6
f 99/66/6 44/138/6 163/60/6
f 44/138/6 47/143/6 164/144/6
f 163/60/6 44/138/6 164/144/6
f 101/82/6 160/154/6 108/76/6
f 74/73/6 101/82/6 108/76/6
f 160/154/6 53/159/6 109/160/6
f 108/76/6 160/154/6 109/160/6
f 76/17/6 29/91/6 5/20/6
f 5/20/6 29/91/6 30/92/6
f 10/33/6 81/107/6 93/36/6
f 93/36/6 81/107/6 165/108/6
f 166/49/6 38/123/6 96/52/6
f 96/52/6 38/123/6 39/124/6
f 167/65/6 45/139/6 22/68/6
f 22/68/6 45/139/6 46/140/6
f 26/81/6 50/155/6 168/84/6
f 168/84/6 50/155/6 102/156/6
