# Blender v2.79 (sub 0) OBJ File: 'lilypad.blend'
# www.blender.org
mtllib lilypad.mtl
o lilypad
v -0.555882 -0.154411 0.194118
v -0.555882 -0.154411 0.294118
v -0.555882 -0.154411 -0.105882
v -0.555882 0.145589 -0.105882
v -0.455882 -0.154411 0.494118
v -0.455882 0.145589 0.294118
v -0.455882 0.145589 -0.305882
v -0.455882 -0.154411 -0.505882
v -0.455882 -0.154411 -0.305882
v -0.455882 0.145589 -0.505882
v -0.255882 0.145589 0.594118
v -0.255882 -0.154411 0.494118
v -0.255882 -0.154411 0.594118
v -0.255882 0.145589 -0.605882
v 0.344118 -0.154411 0.594118
v 0.344118 0.145589 -0.605882
v 0.544118 -0.154411 0.494118
v 0.544118 0.145589 0.494118
v 0.544118 0.145589 0.294118
v 0.544118 -0.154411 -0.505882
v 0.544118 0.145589 -0.305882
v 0.644118 0.145589 -0.305882
v -0.455882 0.145589 0.494118
v -0.255882 0.145589 0.494118
v 0.344118 0.145589 0.494118
v 0.344118 -0.154411 0.494118
v -0.555882 0.145589 0.294118
v 0.644118 0.145589 0.294118
v -0.555882 -0.154411 -0.305882
v -0.555882 0.145589 -0.305882
v 0.344118 -0.154411 -0.505882
v 0.344118 0.145589 -0.505882
v -0.255882 -0.154411 -0.605882
v 0.344118 -0.154411 -0.605882
v -0.455882 -0.154411 0.294118
v 0.544118 -0.154411 0.294118
v 0.644118 -0.154411 0.294118
v -0.455882 -0.154411 0.194118
v -0.455882 -0.154411 -0.105882
v 0.544118 -0.154411 -0.305882
v 0.644118 -0.154411 -0.305882
v -0.255882 -0.154411 -0.505882
v 0.344118 0.145589 0.594118
v -0.555882 0.145589 0.194118
v -0.155882 0.145589 0.194118
v -0.155882 0.145589 0.094118
v 0.044118 0.145589 0.094118
v 0.044118 0.145589 -0.005882
v 0.144118 0.145589 -0.005882
v 0.144118 0.145589 -0.105882
v -0.255882 0.145589 -0.505882
v 0.544118 0.145589 -0.505882
vt 0.904297 0.500000
vt 0.904297 0.500000
vt 0.904297 0.500000
vt 0.896484 0.500000
vt 0.896484 0.500000
vt 0.896484 0.500000
vt 0.904297 0.500000
vt 0.904297 0.500000
vt 0.904297 0.500000
vt 0.904297 0.500000
vt 0.896484 0.500000
vt 0.904297 0.500000
vt 0.904297 0.500000
vt 0.904297 0.500000
vt 0.904297 0.500000
vt 0.904297 0.500000
vt 0.904297 0.500000
vt 0.904297 0.500000
vt 0.904297 0.500000
vt 0.904297 0.500000
vt 0.904297 0.500000
vt 0.904297 0.500000
vt 0.904297 0.500000
vt 0.904297 0.500000
vt 0.904297 0.500000
vt 0.904297 0.500000
vt 0.904297 0.500000
vt 0.904297 0.500000
vt 0.904297 0.500000
vt 0.904297 0.500000
vt 0.904297 0.500000
vt 0.904297 0.500000
vt 0.904297 0.500000
vt 0.904297 0.500000
vt 0.904297 0.500000
vt 0.904297 0.500000
vt 0.904297 0.500000
vt 0.904297 0.500000
vt 0.904297 0.500000
vt 0.904297 0.500000
vt 0.904297 0.500000
vt 0.904297 0.500000
vt 0.904297 0.500000
vt 0.904297 0.500000
vt 0.904297 0.500000
vt 0.904297 0.500000
vt 0.904297 0.500000
vt 0.904297 0.500000
vt 0.904297 0.500000
vt 0.896484 0.500000
vt 0.904297 0.500000
vt 0.896484 0.500000
vt 0.904297 0.500000
vt 0.896484 0.500000
vt 0.896484 0.500000
vt 0.904297 0.500000
vt 0.904297 0.500000
vt 0.896484 0.500000
vt 0.896484 0.500000
vt 0.904297 0.500000
vt 0.904297 0.500000
vt 0.896484 0.500000
vt 0.904297 0.500000
vt 0.896484 0.500000
vn -1.0000 0.0000 0.0000
vn 1.0000 0.0000 0.0000
vn 0.0000 0.0000 1.0000
vn 0.0000 0.0000 -1.0000
vn 0.0000 -1.0000 0.0000
vn 0.0000 1.0000 0.0000
usemtl palette
s off
f 27/1/1 1/2/1 2/3/1
f 44/4/1 3/5/1 1/6/1
f 44/7/1 1/2/1 27/1/1
f 4/8/1 29/9/1 3/10/1
f 4/11/1 3/5/1 44/4/1
f 30/12/1 29/9/1 4/8/1
f 23/13/1 35/14/1 5/15/1
f 6/16/1 35/14/1 23/13/1
f 7/17/1 8/18/1 9/19/1
f 10/20/1 8/18/1 7/17/1
f 11/21/1 12/22/1 13/23/1
f 24/24/1 12/22/1 11/21/1
f 51/25/1 33/26/1 42/27/1
f 14/28/1 33/26/1 51/25/1
f 15/29/2 26/30/2 43/31/2
f 43/31/2 26/30/2 25/32/2
f 31/33/2 34/34/2 32/35/2
f 32/35/2 34/34/2 16/36/2
f 17/37/2 36/38/2 18/39/2
f 18/39/2 36/38/2 19/40/2
f 40/41/2 20/42/2 21/43/2
f 21/43/2 20/42/2 52/44/2
f 37/45/2 41/46/2 28/47/2
f 28/47/2 41/46/2 22/48/2
f 15/29/3 11/21/3 13/23/3
f 43/31/3 11/21/3 15/29/3
f 12/22/3 23/13/3 5/15/3
f 24/24/3 23/13/3 12/22/3
f 17/37/3 25/32/3 26/30/3
f 18/39/3 25/32/3 17/37/3
f 35/14/3 27/1/3 2/3/3
f 6/16/3 27/1/3 35/14/3
f 37/45/3 19/40/3 36/38/3
f 28/47/3 19/40/3 37/45/3
f 29/9/4 30/12/4 9/19/4
f 9/19/4 30/12/4 7/17/4
f 40/41/4 21/43/4 41/46/4
f 41/46/4 21/43/4 22/48/4
f 8/18/4 10/20/4 42/27/4
f 42/27/4 10/20/4 51/25/4
f 31/33/4 32/35/4 20/42/4
f 20/42/4 32/35/4 52/44/4
f 33/26/4 14/28/4 34/34/4
f 34/34/4 14/28/4 16/36/4
f 12/22/5 15/29/5 13/23/5
f 26/30/5 15/29/5 12/22/5
f 35/14/5 12/22/5 5/15/5
f 35/14/5 17/37/5 26/30/5
f 35/14/5 26/30/5 12/22/5
f 36/38/5 17/37/5 35/14/5
f 1/2/5 35/14/5 2/3/5
f 1/2/5 37/45/5 36/38/5
f 1/2/5 36/38/5 35/14/5
f 38/49/5 37/45/5 1/2/5
f 3/5/5 38/50/5 1/6/5
f 39/51/5 37/45/5 38/49/5
f 39/52/5 38/50/5 3/5/5
f 29/9/5 39/51/5 3/10/5
f 9/19/5 37/45/5 39/51/5
f 9/19/5 39/51/5 29/9/5
f 40/41/5 37/45/5 9/19/5
f 41/46/5 37/45/5 40/41/5
f 8/18/5 40/41/5 9/19/5
f 42/27/5 40/41/5 8/18/5
f 31/33/5 40/41/5 42/27/5
f 20/42/5 40/41/5 31/33/5
f 33/26/5 31/33/5 42/27/5
f 34/34/5 31/33/5 33/26/5
f 11/21/6 43/31/6 24/24/6
f 24/24/6 43/31/6 25/32/6
f 23/13/6 24/24/6 6/16/6
f 25/32/6 18/39/6 6/16/6
f 24/24/6 25/32/6 6/16/6
f 6/16/6 18/39/6 19/40/6
f 27/1/6 6/16/6 44/7/6
f 19/40/6 28/47/6 44/7/6
f 6/16/6 19/40/6 44/7/6
f 44/7/6 28/47/6 45/53/6
f 44/4/6 45/54/6 46/55/6
f 45/53/6 28/47/6 46/56/6
f 46/56/6 28/47/6 47/57/6
f 46/55/6 47/58/6 48/59/6
f 47/57/6 28/47/6 48/60/6
f 48/60/6 28/47/6 49/61/6
f 44/4/6 46/55/6 4/11/6
f 46/55/6 48/59/6 4/11/6
f 48/59/6 49/62/6 4/11/6
f 49/61/6 28/47/6 50/63/6
f 4/11/6 49/62/6 50/64/6
f 4/8/6 50/63/6 30/12/6
f 30/12/6 50/63/6 7/17/6
f 50/63/6 28/47/6 21/43/6
f 7/17/6 50/63/6 21/43/6
f 21/43/6 28/47/6 22/48/6
f 7/17/6 21/43/6 10/20/6
f 10/20/6 21/43/6 51/25/6
f 51/25/6 21/43/6 32/35/6
f 32/35/6 21/43/6 52/44/6
f 51/25/6 32/35/6 14/28/6
f 14/28/6 32/35/6 16/36/6
