# Blender v2.79 (sub 0) OBJ File: 'missile.blend'
# www.blender.org
mtllib missile.mtl
o missile
v -0.500000 0.422916 0.025002
v -0.500000 0.322916 -0.074998
v -0.500000 0.322916 0.025002
v -0.500000 0.422916 -0.074998
v -0.400000 0.122916 -0.074998
v -0.400000 0.322916 -0.074998
v -0.300000 0.122916 0.025002
v -0.200000 -0.977084 0.225002
v -0.200000 -1.077084 -0.174998
v -0.200000 -1.077084 0.225002
v -0.200000 0.422916 0.225002
v -0.200000 0.422916 -0.174998
v -0.200000 0.622916 0.225002
v -0.200000 0.622916 -0.174998
v -0.100000 -1.077084 0.125002
v -0.100000 0.622916 0.125002
v 0.100000 0.622916 0.125002
v 0.100000 0.922915 0.125002
v 0.200000 0.022916 0.025002
v 0.200000 0.422916 0.225002
v 0.200000 0.422916 0.025002
v 0.200000 0.422916 -0.174998
v 0.200000 0.622916 0.225002
v 0.400000 0.122916 -0.074998
v 0.400000 0.322916 0.025002
v 0.400000 0.322916 -0.074998
v 0.500000 0.322916 -0.074998
v -0.100000 -0.277084 0.225002
v -0.100000 -0.077084 0.225002
v 0.100000 -0.277084 0.225002
v 0.100000 -0.077084 0.225002
v 0.200000 -1.077084 0.225002
v 0.200000 -0.977084 0.225002
v -0.100000 -1.277084 0.125002
v -0.400000 0.322916 0.025002
v -0.300000 0.022916 0.025002
v -0.200000 0.422916 0.025002
v 0.300000 0.122916 0.025002
v 0.500000 0.422916 0.025002
v -0.300000 0.122916 -0.074998
v -0.200000 0.022916 -0.074998
v -0.200000 0.422916 -0.074998
v -0.100000 -1.277084 -0.074998
v -0.100000 -1.077084 -0.074998
v 0.100000 -1.277084 -0.074998
v -0.100000 0.622916 -0.074998
v 0.100000 0.622916 -0.074998
v 0.100000 0.922915 -0.074998
v 0.200000 0.422916 -0.074998
v 0.500000 0.422916 -0.074998
v -0.200000 -0.977084 -0.174998
v -0.100000 -0.377084 -0.174998
v -0.100000 -0.177084 -0.174998
v 0.100000 -0.377084 -0.174998
v 0.100000 -0.177084 -0.174998
v 0.200000 -1.077084 -0.174998
v 0.200000 -0.977084 -0.174998
v 0.200000 0.622916 -0.174998
v 0.100000 -1.277084 0.125002
v 0.100000 -1.077084 0.125002
v 0.100000 -1.077084 -0.074998
v -0.300000 0.022916 -0.074998
v -0.200000 0.022916 0.025002
v 0.200000 0.022916 -0.074998
v 0.300000 0.022916 0.025002
v 0.300000 0.022916 -0.074998
v -0.400000 0.122916 0.025002
v 0.300000 0.122916 -0.074998
v 0.400000 0.122916 0.025002
v 0.500000 0.322916 0.025002
v -0.100000 0.922915 0.125002
v -0.100000 0.922915 -0.074998
vt 0.962891 0.500000
vt 0.962891 0.500000
vt 0.962891 0.500000
vt 0.962891 0.500000
vt 0.962891 0.500000
vt 0.962891 0.500000
vt 0.962891 0.500000
vt 0.962891 0.500000
vt 0.962891 0.500000
vt 0.962891 0.500000
vt 0.962891 0.500000
vt 0.962891 0.500000
vt 0.841797 0.500000
vt 0.841797 0.500000
vt 0.841797 0.500000
vt 0.841797 0.500000
vt 0.958984 0.500000
vt 0.958984 0.500000
vt 0.958984 0.500000
vt 0.958984 0.500000
vt 0.958984 0.500000
vt 0.958984 0.500000
vt 0.958984 0.500000
vt 0.958984 0.500000
vt 0.994141 0.500000
vt 0.994141 0.500000
vt 0.994141 0.500000
vt 0.994141 0.500000
vt 0.994141 0.500000
vt 0.994141 0.500000
vt 0.841797 0.500000
vt 0.841797 0.500000
vt 0.841797 0.500000
vt 0.841797 0.500000
vt 0.021484 0.500000
vt 0.021484 0.500000
vt 0.021484 0.500000
vt 0.021484 0.500000
vt 0.841797 0.500000
vt 0.841797 0.500000
vt 0.841797 0.500000
vt 0.841797 0.500000
vt 0.021484 0.500000
vt 0.021484 0.500000
vt 0.021484 0.500000
vt 0.021484 0.500000
vt 0.841797 0.500000
vt 0.841797 0.500000
vt 0.841797 0.500000
vt 0.841797 0.500000
vt 0.958984 0.500000
vt 0.958984 0.500000
vt 0.958984 0.500000
vt 0.958984 0.500000
vt 0.958984 0.500000
vt 0.958984 0.500000
vt 0.958984 0.500000
vt 0.958984 0.500000
vt 0.994141 0.500000
vt 0.994141 0.500000
vt 0.994141 0.500000
vt 0.994141 0.500000
vt 0.994141 0.500000
vt 0.994141 0.500000
vt 0.962891 0.500000
vt 0.962891 0.500000
vt 0.962891 0.500000
vt 0.962891 0.500000
vt 0.962891 0.500000
vt 0.962891 0.500000
vt 0.962891 0.500000
vt 0.962891 0.500000
vt 0.962891 0.500000
vt 0.962891 0.500000
vt 0.962891 0.500000
vt 0.962891 0.500000
vt 0.958984 0.500000
vt 0.958984 0.500000
vt 0.958984 0.500000
vt 0.775391 0.500000
vt 0.775391 0.500000
vt 0.775391 0.500000
vt 0.958984 0.500000
vt 0.775391 0.500000
vt 0.962891 0.500000
vt 0.962891 0.500000
vt 0.962891 0.500000
vt 0.962891 0.500000
vt 0.962891 0.500000
vt 0.962891 0.500000
vt 0.962891 0.500000
vt 0.962891 0.500000
vt 0.958984 0.500000
vt 0.958984 0.500000
vt 0.958984 0.500000
vt 0.775391 0.500000
vt 0.775391 0.500000
vt 0.775391 0.500000
vt 0.958984 0.500000
vt 0.775391 0.500000
vt 0.994141 0.500000
vt 0.994141 0.500000
vt 0.994141 0.500000
vt 0.994141 0.500000
vn -1.0000 0.0000 0.0000
vn 1.0000 0.0000 0.0000
vn 0.0000 -0.0000 1.0000
vn 0.0000 0.0000 -1.0000
vn 0.0000 -1.0000 0.0000
vn 0.0000 1.0000 0.0000
usemtl palette
s off
f 1/1/1 2/2/1 3/3/1
f 4/4/1 2/2/1 1/1/1
f 35/5/1 5/6/1 67/7/1
f 6/8/1 5/6/1 35/5/1
f 7/9/1 62/10/1 36/11/1
f 40/12/1 62/10/1 7/9/1
f 8/13/1 9/14/1 10/15/1
f 51/16/1 9/14/1 8/13/1
f 63/17/1 51/18/1 8/19/1
f 41/20/1 51/18/1 63/17/1
f 11/21/1 63/17/1 8/19/1
f 37/22/1 63/17/1 11/21/1
f 42/23/1 51/18/1 41/20/1
f 12/24/1 51/18/1 42/23/1
f 13/25/1 37/26/1 11/27/1
f 13/25/1 42/28/1 37/26/1
f 13/25/1 12/29/1 42/28/1
f 14/30/1 12/29/1 13/25/1
f 15/31/1 43/32/1 34/33/1
f 44/34/1 43/32/1 15/31/1
f 71/35/1 46/36/1 16/37/1
f 72/38/1 46/36/1 71/35/1
f 59/39/2 45/40/2 60/41/2
f 60/41/2 45/40/2 61/42/2
f 17/43/2 47/44/2 18/45/2
f 18/45/2 47/44/2 48/46/2
f 32/47/2 56/48/2 33/49/2
f 33/49/2 56/48/2 57/50/2
f 33/51/2 57/52/2 19/53/2
f 19/53/2 57/52/2 64/54/2
f 33/51/2 19/53/2 20/55/2
f 20/55/2 19/53/2 21/56/2
f 64/54/2 57/52/2 49/57/2
f 49/57/2 57/52/2 22/58/2
f 20/59/2 21/60/2 23/61/2
f 21/60/2 49/62/2 23/61/2
f 49/62/2 22/63/2 23/61/2
f 23/61/2 22/63/2 58/64/2
f 65/65/2 66/66/2 38/67/2
f 38/67/2 66/66/2 68/68/2
f 69/69/2 24/70/2 25/71/2
f 25/71/2 24/70/2 26/72/2
f 70/73/2 27/74/2 39/75/2
f 39/75/2 27/74/2 50/76/2
f 28/77/3 11/21/3 8/19/3
f 29/78/3 11/21/3 28/77/3
f 30/79/3 28/77/3 8/19/3
f 30/80/3 29/81/3 28/82/3
f 31/83/3 11/21/3 29/78/3
f 31/84/3 29/81/3 30/80/3
f 32/47/3 8/13/3 10/15/3
f 33/51/3 30/79/3 8/19/3
f 33/49/3 8/13/3 32/47/3
f 33/51/3 31/83/3 30/79/3
f 20/55/3 11/21/3 31/83/3
f 20/55/3 31/83/3 33/51/3
f 20/59/3 13/25/3 11/27/3
f 23/61/3 13/25/3 20/59/3
f 59/39/3 15/31/3 34/33/3
f 60/41/3 15/31/3 59/39/3
f 17/43/3 71/35/3 16/37/3
f 18/45/3 71/35/3 17/43/3
f 35/5/3 1/1/3 3/3/3
f 7/9/3 35/5/3 67/7/3
f 63/85/3 7/9/3 36/11/3
f 37/86/3 1/1/3 35/5/3
f 37/86/3 7/9/3 63/85/3
f 37/86/3 35/5/3 7/9/3
f 65/65/3 21/87/3 19/88/3
f 38/67/3 21/87/3 65/65/3
f 69/69/3 21/87/3 38/67/3
f 25/71/3 21/87/3 69/69/3
f 70/73/3 21/87/3 25/71/3
f 39/75/3 21/87/3 70/73/3
f 2/2/4 4/4/4 6/8/4
f 5/6/4 6/8/4 40/12/4
f 62/10/4 40/12/4 41/89/4
f 6/8/4 4/4/4 42/90/4
f 41/89/4 40/12/4 42/90/4
f 40/12/4 6/8/4 42/90/4
f 43/32/4 44/34/4 45/40/4
f 45/40/4 44/34/4 61/42/4
f 46/36/4 72/38/4 47/44/4
f 47/44/4 72/38/4 48/46/4
f 64/91/4 49/92/4 66/66/4
f 66/66/4 49/92/4 68/68/4
f 68/68/4 49/92/4 24/70/4
f 24/70/4 49/92/4 26/72/4
f 26/72/4 49/92/4 27/74/4
f 27/74/4 49/92/4 50/76/4
f 51/18/4 12/24/4 52/93/4
f 52/93/4 12/24/4 53/94/4
f 51/18/4 52/93/4 54/95/4
f 52/96/4 53/97/4 54/98/4
f 53/94/4 12/24/4 55/99/4
f 54/98/4 53/97/4 55/100/4
f 9/14/4 51/16/4 56/48/4
f 51/18/4 54/95/4 57/52/4
f 56/48/4 51/16/4 57/50/4
f 54/95/4 55/99/4 57/52/4
f 55/99/4 12/24/4 22/58/4
f 57/52/4 55/99/4 22/58/4
f 12/29/4 14/30/4 22/63/4
f 22/63/4 14/30/4 58/64/4
f 43/32/5 59/39/5 34/33/5
f 45/40/5 59/39/5 43/32/5
f 15/31/5 32/47/5 10/15/5
f 60/41/5 32/47/5 15/31/5
f 44/34/5 15/31/5 10/15/5
f 61/42/5 32/47/5 60/41/5
f 9/14/5 44/34/5 10/15/5
f 9/14/5 61/42/5 44/34/5
f 56/48/5 32/47/5 61/42/5
f 56/48/5 61/42/5 9/14/5
f 62/10/5 63/85/5 36/11/5
f 41/89/5 63/85/5 62/10/5
f 64/91/5 65/65/5 19/88/5
f 66/66/5 65/65/5 64/91/5
f 5/6/5 7/9/5 67/7/5
f 40/12/5 7/9/5 5/6/5
f 68/68/5 69/69/5 38/67/5
f 24/70/5 69/69/5 68/68/5
f 2/2/5 35/5/5 3/3/5
f 6/8/5 35/5/5 2/2/5
f 26/72/5 70/73/5 25/71/5
f 27/74/5 70/73/5 26/72/5
f 1/1/6 37/86/6 4/4/6
f 4/4/6 37/86/6 42/90/6
f 21/87/6 39/75/6 49/92/6
f 49/92/6 39/75/6 50/76/6
f 13/25/6 23/61/6 16/101/6
f 16/101/6 23/61/6 17/102/6
f 13/25/6 16/101/6 46/103/6
f 17/102/6 23/61/6 47/104/6
f 13/25/6 46/103/6 14/30/6
f 46/103/6 47/104/6 14/30/6
f 47/104/6 23/61/6 58/64/6
f 14/30/6 47/104/6 58/64/6
f 71/35/6 18/45/6 72/38/6
f 72/38/6 18/45/6 48/46/6
