# MagicaVoxel @ Ephtracy

# group
o 

# material
mtllib chicken.mtl
usemtl palette

# normals
vn -1 0 0
vn 1 0 0
vn 0 0 1
vn 0 0 -1
vn 0 -1 0
vn 0 1 0

# texcoords
vt 0.0175781 0.5
vt 0.0917969 0.5
vt 0.845703 0.5
vt 0.958984 0.5
vt 0.982422 0.5
vt 0.994141 0.5

# verts
v 1.8 4.4 -2
v 1.8 4.4 -2.3
v 1.8 4.5 -2
v 1.8 4.5 -2.3
v 1.9 4.1 -1.9
v 1.9 4.1 -2.4
v 1.9 4.4 -2
v 1.9 4.4 -2.3
v 1.9 4.5 -2
v 1.9 4.5 -2.3
v 1.9 4.6 -2
v 1.9 4.6 -2.1
v 1.9 4.6 -2.2
v 1.9 4.6 -2.3
v 1.9 4.7 -1.9
v 1.9 4.7 -2
v 1.9 4.7 -2.1
v 1.9 4.7 -2.2
v 1.9 4.7 -2.3
v 1.9 4.7 -2.4
v 1.9 4.8 -2
v 1.9 4.8 -2.1
v 1.9 4.8 -2.2
v 1.9 4.8 -2.3
v 1.9 5.1 -2.1
v 1.9 5.1 -2.2
v 2 3.7 -2
v 2 3.7 -2.1
v 2 3.7 -2.2
v 2 3.7 -2.3
v 2 3.8 -2
v 2 3.8 -2.1
v 2 3.8 -2.2
v 2 3.8 -2.3
v 2 4 -1.9
v 2 4 -2.4
v 2 4.1 -1.9
v 2 4.1 -2.4
v 2 4.2 -1.8
v 2 4.2 -1.9
v 2 4.2 -2.4
v 2 4.2 -2.5
v 2 4.3 -1.8
v 2 4.3 -1.9
v 2 4.3 -2.4
v 2 4.3 -2.5
v 2.1 4.1 -1.8
v 2.1 4.1 -1.9
v 2.1 4.1 -2.4
v 2.1 4.1 -2.5
v 2.1 4.2 -1.8
v 2.1 4.2 -1.9
v 2.1 4.2 -2.4
v 2.1 4.2 -2.5
v 2.2 3.8 -2
v 2.2 3.8 -2.1
v 2.2 3.8 -2.2
v 2.2 3.8 -2.3
v 2.2 4 -2
v 2.2 4 -2.1
v 2.2 4 -2.2
v 2.2 4 -2.3
v 2 5 -2.1
v 2 5 -2.2
v 2 5.1 -2.1
v 2 5.1 -2.2
v 2.1 4.4 -1.9
v 2.1 4.4 -2.4
v 2.1 4.7 -1.9
v 2.1 4.7 -2
v 2.1 4.7 -2.3
v 2.1 4.7 -2.4
v 2.1 4.8 -2
v 2.1 4.8 -2.1
v 2.1 4.8 -2.2
v 2.1 4.8 -2.3
v 2.1 5 -2.1
v 2.1 5 -2.2
v 2.3 3.8 -2
v 2.3 3.8 -2.1
v 2.3 3.8 -2.2
v 2.3 3.8 -2.3
v 2.3 4 -2
v 2.3 4 -2.1
v 2.3 4 -2.2
v 2.3 4 -2.3
v 2.3 4.2 -1.8
v 2.3 4.2 -1.9
v 2.3 4.2 -2.4
v 2.3 4.2 -2.5
v 2.3 4.3 -1.8
v 2.3 4.3 -1.9
v 2.3 4.3 -2.4
v 2.3 4.3 -2.5
v 2.4 3.7 -2
v 2.4 3.7 -2.1
v 2.4 3.7 -2.2
v 2.4 3.7 -2.3
v 2.4 3.8 -2
v 2.4 3.8 -2.1
v 2.4 3.8 -2.2
v 2.4 3.8 -2.3
v 2.4 4.1 -1.8
v 2.4 4.1 -1.9
v 2.4 4.1 -2.4
v 2.4 4.1 -2.5
v 2.4 4.2 -1.8
v 2.4 4.2 -1.9
v 2.4 4.2 -2.4
v 2.4 4.2 -2.5
v 2.4 4.3 -1.9
v 2.4 4.3 -2.4
v 2.4 4.4 -1.9
v 2.4 4.4 -2.4
v 2.5 4 -1.9
v 2.5 4 -2.4
v 2.5 4.3 -1.9
v 2.5 4.3 -2.4
v 2 4.2 -1.8
v 2 4.3 -1.8
v 2.1 4.1 -1.8
v 2.1 4.2 -1.8
v 2.3 4.2 -1.8
v 2.3 4.3 -1.8
v 2.4 4.1 -1.8
v 2.4 4.2 -1.8
v 1.9 4.1 -1.9
v 1.9 4.7 -1.9
v 2 4 -1.9
v 2 4.1 -1.9
v 2 4.2 -1.9
v 2 4.3 -1.9
v 2.1 4.1 -1.9
v 2.1 4.2 -1.9
v 2.1 4.4 -1.9
v 2.1 4.7 -1.9
v 2.3 4.2 -1.9
v 2.3 4.3 -1.9
v 2.4 4.1 -1.9
v 2.4 4.2 -1.9
v 2.4 4.3 -1.9
v 2.4 4.4 -1.9
v 2.5 4 -1.9
v 2.5 4.3 -1.9
v 1.8 4.4 -2
v 1.8 4.5 -2
v 1.9 4.4 -2
v 1.9 4.5 -2
v 1.9 4.7 -2
v 1.9 4.8 -2
v 2 3.7 -2
v 2 3.8 -2
v 2.1 4.7 -2
v 2.1 4.8 -2
v 2.2 3.8 -2
v 2.2 4 -2
v 2.3 3.8 -2
v 2.3 4 -2
v 2.4 3.7 -2
v 2.4 3.8 -2
v 1.9 4.8 -2.1
v 1.9 5.1 -2.1
v 2 5 -2.1
v 2 5.1 -2.1
v 2.1 4.8 -2.1
v 2.1 5 -2.1
v 2 3.7 -2.2
v 2 3.8 -2.2
v 2.2 3.8 -2.2
v 2.2 4 -2.2
v 2.3 3.8 -2.2
v 2.3 4 -2.2
v 2.4 3.7 -2.2
v 2.4 3.8 -2.2
v 2 3.7 -2.1
v 2 3.8 -2.1
v 2.2 3.8 -2.1
v 2.2 4 -2.1
v 2.3 3.8 -2.1
v 2.3 4 -2.1
v 2.4 3.7 -2.1
v 2.4 3.8 -2.1
v 1.9 4.8 -2.2
v 1.9 5.1 -2.2
v 2 5 -2.2
v 2 5.1 -2.2
v 2.1 4.8 -2.2
v 2.1 5 -2.2
v 1.8 4.4 -2.3
v 1.8 4.5 -2.3
v 1.9 4.4 -2.3
v 1.9 4.5 -2.3
v 1.9 4.7 -2.3
v 1.9 4.8 -2.3
v 2 3.7 -2.3
v 2 3.8 -2.3
v 2.1 4.7 -2.3
v 2.1 4.8 -2.3
v 2.2 3.8 -2.3
v 2.2 4 -2.3
v 2.3 3.8 -2.3
v 2.3 4 -2.3
v 2.4 3.7 -2.3
v 2.4 3.8 -2.3
v 1.9 4.1 -2.4
v 1.9 4.7 -2.4
v 2 4 -2.4
v 2 4.1 -2.4
v 2 4.2 -2.4
v 2 4.3 -2.4
v 2.1 4.1 -2.4
v 2.1 4.2 -2.4
v 2.1 4.4 -2.4
v 2.1 4.7 -2.4
v 2.3 4.2 -2.4
v 2.3 4.3 -2.4
v 2.4 4.1 -2.4
v 2.4 4.2 -2.4
v 2.4 4.3 -2.4
v 2.4 4.4 -2.4
v 2.5 4 -2.4
v 2.5 4.3 -2.4
v 2 4.2 -2.5
v 2 4.3 -2.5
v 2.1 4.1 -2.5
v 2.1 4.2 -2.5
v 2.3 4.2 -2.5
v 2.3 4.3 -2.5
v 2.4 4.1 -2.5
v 2.4 4.2 -2.5
v 2 3.7 -2
v 2.4 3.7 -2
v 2 3.7 -2.1
v 2.4 3.7 -2.1
v 2 3.7 -2.2
v 2.4 3.7 -2.2
v 2 3.7 -2.3
v 2.4 3.7 -2.3
v 2 4 -1.9
v 2.5 4 -1.9
v 2.2 4 -2
v 2.3 4 -2
v 2.2 4 -2.1
v 2.3 4 -2.1
v 2.2 4 -2.2
v 2.3 4 -2.2
v 2.2 4 -2.3
v 2.3 4 -2.3
v 2 4 -2.4
v 2.5 4 -2.4
v 2.1 4.1 -1.8
v 2.4 4.1 -1.8
v 1.9 4.1 -1.9
v 2 4.1 -1.9
v 2.1 4.1 -1.9
v 2.4 4.1 -1.9
v 1.9 4.1 -2.4
v 2 4.1 -2.4
v 2.1 4.1 -2.4
v 2.4 4.1 -2.4
v 2.1 4.1 -2.5
v 2.4 4.1 -2.5
v 2 4.2 -1.8
v 2.1 4.2 -1.8
v 2 4.2 -1.9
v 2.1 4.2 -1.9
v 2 4.2 -2.4
v 2.1 4.2 -2.4
v 2 4.2 -2.5
v 2.1 4.2 -2.5
v 1.8 4.4 -2
v 1.9 4.4 -2
v 1.8 4.4 -2.3
v 1.9 4.4 -2.3
v 2 3.8 -2
v 2.2 3.8 -2
v 2.3 3.8 -2
v 2.4 3.8 -2
v 2 3.8 -2.1
v 2.2 3.8 -2.1
v 2.3 3.8 -2.1
v 2.4 3.8 -2.1
v 2 3.8 -2.2
v 2.2 3.8 -2.2
v 2.3 3.8 -2.2
v 2.4 3.8 -2.2
v 2 3.8 -2.3
v 2.2 3.8 -2.3
v 2.3 3.8 -2.3
v 2.4 3.8 -2.3
v 2.3 4.2 -1.8
v 2.4 4.2 -1.8
v 2.3 4.2 -1.9
v 2.4 4.2 -1.9
v 2.3 4.2 -2.4
v 2.4 4.2 -2.4
v 2.3 4.2 -2.5
v 2.4 4.2 -2.5
v 2 4.3 -1.8
v 2.3 4.3 -1.8
v 2 4.3 -1.9
v 2.3 4.3 -1.9
v 2.4 4.3 -1.9
v 2.5 4.3 -1.9
v 2 4.3 -2.4
v 2.3 4.3 -2.4
v 2.4 4.3 -2.4
v 2.5 4.3 -2.4
v 2 4.3 -2.5
v 2.3 4.3 -2.5
v 2.1 4.4 -1.9
v 2.4 4.4 -1.9
v 2.1 4.4 -2.4
v 2.4 4.4 -2.4
v 1.8 4.5 -2
v 1.9 4.5 -2
v 1.8 4.5 -2.3
v 1.9 4.5 -2.3
v 1.9 4.7 -1.9
v 2.1 4.7 -1.9
v 1.9 4.7 -2
v 2.1 4.7 -2
v 1.9 4.7 -2.3
v 2.1 4.7 -2.3
v 1.9 4.7 -2.4
v 2.1 4.7 -2.4
v 1.9 4.8 -2
v 2.1 4.8 -2
v 1.9 4.8 -2.1
v 2.1 4.8 -2.1
v 1.9 4.8 -2.2
v 2.1 4.8 -2.2
v 1.9 4.8 -2.3
v 2.1 4.8 -2.3
v 2 5 -2.1
v 2.1 5 -2.1
v 2 5 -2.2
v 2.1 5 -2.2
v 1.9 5.1 -2.1
v 2 5.1 -2.1
v 1.9 5.1 -2.2
v 2 5.1 -2.2

# faces
f 3/1/1 2/1/1 1/1/1
f 4/1/1 2/1/1 3/1/1
f 7/4/1 6/4/1 5/4/1
f 8/4/1 6/4/1 7/4/1
f 9/4/1 7/4/1 5/4/1
f 10/4/1 6/4/1 8/4/1
f 11/4/1 9/4/1 5/4/1
f 11/4/1 10/4/1 9/4/1
f 12/4/1 10/4/1 11/4/1
f 13/4/1 10/4/1 12/4/1
f 14/4/1 6/4/1 10/4/1
f 14/4/1 10/4/1 13/4/1
f 15/4/1 11/4/1 5/4/1
f 16/6/1 12/6/1 11/6/1
f 16/4/1 11/4/1 15/4/1
f 17/4/1 13/4/1 12/4/1
f 17/6/1 12/6/1 16/6/1
f 18/6/1 14/6/1 13/6/1
f 18/4/1 13/4/1 17/4/1
f 19/4/1 6/4/1 14/4/1
f 19/6/1 14/6/1 18/6/1
f 20/4/1 6/4/1 19/4/1
f 21/4/1 18/4/1 17/4/1
f 21/4/1 19/4/1 18/4/1
f 21/4/1 17/4/1 16/4/1
f 22/4/1 19/4/1 21/4/1
f 23/4/1 19/4/1 22/4/1
f 24/4/1 19/4/1 23/4/1
f 25/3/1 23/3/1 22/3/1
f 26/3/1 23/3/1 25/3/1
f 31/2/1 28/2/1 27/2/1
f 32/2/1 28/2/1 31/2/1
f 33/2/1 30/2/1 29/2/1
f 34/2/1 30/2/1 33/2/1
f 37/4/1 36/4/1 35/4/1
f 38/4/1 36/4/1 37/4/1
f 43/4/1 40/4/1 39/4/1
f 44/4/1 40/4/1 43/4/1
f 45/4/1 42/4/1 41/4/1
f 46/4/1 42/4/1 45/4/1
f 51/4/1 48/4/1 47/4/1
f 52/4/1 48/4/1 51/4/1
f 53/4/1 50/4/1 49/4/1
f 54/4/1 50/4/1 53/4/1
f 59/2/1 56/2/1 55/2/1
f 60/2/1 56/2/1 59/2/1
f 61/2/1 58/2/1 57/2/1
f 62/2/1 58/2/1 61/2/1
f 63/3/2 64/3/2 65/3/2
f 65/3/2 64/3/2 66/3/2
f 67/4/2 68/4/2 69/4/2
f 69/4/2 68/4/2 70/4/2
f 70/4/2 68/4/2 71/4/2
f 71/4/2 68/4/2 72/4/2
f 70/4/2 71/4/2 73/4/2
f 73/4/2 71/4/2 74/4/2
f 74/4/2 71/4/2 75/4/2
f 75/4/2 71/4/2 76/4/2
f 74/3/2 75/3/2 77/3/2
f 77/3/2 75/3/2 78/3/2
f 79/2/2 80/2/2 83/2/2
f 83/2/2 80/2/2 84/2/2
f 81/2/2 82/2/2 85/2/2
f 85/2/2 82/2/2 86/2/2
f 87/4/2 88/4/2 91/4/2
f 91/4/2 88/4/2 92/4/2
f 89/4/2 90/4/2 93/4/2
f 93/4/2 90/4/2 94/4/2
f 95/2/2 96/2/2 99/2/2
f 99/2/2 96/2/2 100/2/2
f 97/2/2 98/2/2 101/2/2
f 101/2/2 98/2/2 102/2/2
f 103/4/2 104/4/2 107/4/2
f 107/4/2 104/4/2 108/4/2
f 105/4/2 106/4/2 109/4/2
f 109/4/2 106/4/2 110/4/2
f 111/4/2 112/4/2 113/4/2
f 113/4/2 112/4/2 114/4/2
f 115/4/2 116/4/2 117/4/2
f 117/4/2 116/4/2 118/4/2
f 122/4/3 120/4/3 119/4/3
f 123/4/3 120/4/3 122/4/3
f 123/4/3 122/4/3 121/4/3
f 124/4/3 120/4/3 123/4/3
f 125/4/3 123/4/3 121/4/3
f 126/4/3 123/4/3 125/4/3
f 130/4/3 128/4/3 127/4/3
f 131/4/3 128/4/3 130/4/3
f 132/4/3 128/4/3 131/4/3
f 133/4/3 130/4/3 129/4/3
f 133/4/3 131/4/3 130/4/3
f 134/4/3 131/4/3 133/4/3
f 135/4/3 128/4/3 132/4/3
f 136/4/3 128/4/3 135/4/3
f 138/4/3 135/4/3 132/4/3
f 139/4/3 133/4/3 129/4/3
f 140/4/3 138/4/3 137/4/3
f 141/4/3 135/4/3 138/4/3
f 141/4/3 138/4/3 140/4/3
f 142/4/3 135/4/3 141/4/3
f 143/4/3 139/4/3 129/4/3
f 143/4/3 140/4/3 139/4/3
f 143/4/3 141/4/3 140/4/3
f 144/4/3 141/4/3 143/4/3
f 147/1/3 146/1/3 145/1/3
f 148/1/3 146/1/3 147/1/3
f 153/4/3 150/4/3 149/4/3
f 154/4/3 150/4/3 153/4/3
f 155/2/3 152/2/3 151/2/3
f 157/2/3 155/2/3 151/2/3
f 157/2/3 156/2/3 155/2/3
f 158/2/3 156/2/3 157/2/3
f 159/2/3 157/2/3 151/2/3
f 160/2/3 157/2/3 159/2/3
f 163/3/3 162/3/3 161/3/3
f 164/3/3 162/3/3 163/3/3
f 165/3/3 163/3/3 161/3/3
f 166/3/3 163/3/3 165/3/3
f 169/2/3 168/2/3 167/2/3
f 171/2/3 169/2/3 167/2/3
f 171/2/3 170/2/3 169/2/3
f 172/2/3 170/2/3 171/2/3
f 173/2/3 171/2/3 167/2/3
f 174/2/3 171/2/3 173/2/3
f 175/2/4 176/2/4 177/2/4
f 175/2/4 177/2/4 179/2/4
f 177/2/4 178/2/4 179/2/4
f 179/2/4 178/2/4 180/2/4
f 175/2/4 179/2/4 181/2/4
f 181/2/4 179/2/4 182/2/4
f 183/3/4 184/3/4 185/3/4
f 185/3/4 184/3/4 186/3/4
f 183/3/4 185/3/4 187/3/4
f 187/3/4 185/3/4 188/3/4
f 189/1/4 190/1/4 191/1/4
f 191/1/4 190/1/4 192/1/4
f 193/4/4 194/4/4 197/4/4
f 197/4/4 194/4/4 198/4/4
f 195/2/4 196/2/4 199/2/4
f 195/2/4 199/2/4 201/2/4
f 199/2/4 200/2/4 201/2/4
f 201/2/4 200/2/4 202/2/4
f 195/2/4 201/2/4 203/2/4
f 203/2/4 201/2/4 204/2/4
f 205/4/4 206/4/4 208/4/4
f 208/4/4 206/4/4 209/4/4
f 209/4/4 206/4/4 210/4/4
f 207/4/4 208/4/4 211/4/4
f 208/4/4 209/4/4 211/4/4
f 211/4/4 209/4/4 212/4/4
f 210/4/4 206/4/4 213/4/4
f 213/4/4 206/4/4 214/4/4
f 210/4/4 213/4/4 216/4/4
f 207/4/4 211/4/4 217/4/4
f 215/4/4 216/4/4 218/4/4
f 216/4/4 213/4/4 219/4/4
f 218/4/4 216/4/4 219/4/4
f 219/4/4 213/4/4 220/4/4
f 207/4/4 217/4/4 221/4/4
f 217/4/4 218/4/4 221/4/4
f 218/4/4 219/4/4 221/4/4
f 221/4/4 219/4/4 222/4/4
f 223/4/4 224/4/4 226/4/4
f 226/4/4 224/4/4 227/4/4
f 225/4/4 226/4/4 227/4/4
f 227/4/4 224/4/4 228/4/4
f 225/4/4 227/4/4 229/4/4
f 229/4/4 227/4/4 230/4/4
f 233/2/5 232/2/5 231/2/5
f 234/2/5 232/2/5 233/2/5
f 237/2/5 236/2/5 235/2/5
f 238/2/5 236/2/5 237/2/5
f 241/4/5 240/4/5 239/4/5
f 242/4/5 240/4/5 241/4/5
f 243/4/5 241/4/5 239/4/5
f 244/4/5 240/4/5 242/4/5
f 245/4/5 243/4/5 239/4/5
f 245/4/5 244/4/5 243/4/5
f 246/4/5 240/4/5 244/4/5
f 246/4/5 244/4/5 245/4/5
f 247/4/5 245/4/5 239/4/5
f 248/4/5 240/4/5 246/4/5
f 249/4/5 247/4/5 239/4/5
f 249/4/5 248/4/5 247/4/5
f 250/4/5 240/4/5 248/4/5
f 250/4/5 248/4/5 249/4/5
f 255/4/5 252/4/5 251/4/5
f 256/4/5 252/4/5 255/4/5
f 257/4/5 254/4/5 253/4/5
f 258/4/5 254/4/5 257/4/5
f 261/4/5 260/4/5 259/4/5
f 262/4/5 260/4/5 261/4/5
f 265/4/5 264/4/5 263/4/5
f 266/4/5 264/4/5 265/4/5
f 269/4/5 268/4/5 267/4/5
f 270/4/5 268/4/5 269/4/5
f 273/1/5 272/1/5 271/1/5
f 274/1/5 272/1/5 273/1/5
f 275/2/6 276/2/6 279/2/6
f 279/2/6 276/2/6 280/2/6
f 277/2/6 278/2/6 281/2/6
f 281/2/6 278/2/6 282/2/6
f 283/2/6 284/2/6 287/2/6
f 287/2/6 284/2/6 288/2/6
f 285/2/6 286/2/6 289/2/6
f 289/2/6 286/2/6 290/2/6
f 291/4/6 292/4/6 293/4/6
f 293/4/6 292/4/6 294/4/6
f 295/4/6 296/4/6 297/4/6
f 297/4/6 296/4/6 298/4/6
f 299/4/6 300/4/6 301/4/6
f 301/4/6 300/4/6 302/4/6
f 303/4/6 304/4/6 307/4/6
f 307/4/6 304/4/6 308/4/6
f 305/4/6 306/4/6 309/4/6
f 309/4/6 306/4/6 310/4/6
f 311/4/6 312/4/6 313/4/6
f 313/4/6 312/4/6 314/4/6
f 315/1/6 316/1/6 317/1/6
f 317/1/6 316/1/6 318/1/6
f 319/4/6 320/4/6 321/4/6
f 321/4/6 320/4/6 322/4/6
f 323/4/6 324/4/6 325/4/6
f 325/4/6 324/4/6 326/4/6
f 327/4/6 328/4/6 329/4/6
f 329/4/6 328/4/6 330/4/6
f 331/4/6 332/4/6 333/4/6
f 333/4/6 332/4/6 334/4/6
f 335/3/6 336/3/6 337/3/6
f 337/3/6 336/3/6 338/3/6
f 339/3/6 340/3/6 341/3/6
f 341/3/6 340/3/6 342/3/6
