# MagicaVoxel @ Ephtracy

# group
o 

# material
mtllib missile.mtl
usemtl palette

# normals
vn -1 0 0
vn 1 0 0
vn 0 0 1
vn 0 0 -1
vn 0 -1 0
vn 0 1 0

# texcoords
vt 0.0214844 0.5
vt 0.775391 0.5
vt 0.841797 0.5
vt 0.958984 0.5
vt 0.962891 0.5
vt 0.994141 0.5

# verts
v 1.6 3.6 -2
v 1.6 3.6 -2.1
v 1.6 3.7 -2
v 1.6 3.7 -2.1
v 1.7 3.4 -2
v 1.7 3.4 -2.1
v 1.7 3.6 -2
v 1.7 3.6 -2.1
v 1.8 3.3 -2
v 1.8 3.3 -2.1
v 1.8 3.4 -2
v 1.8 3.4 -2.1
v 1.9 2.2 -1.8
v 1.9 2.2 -2.2
v 1.9 2.3 -1.8
v 1.9 2.3 -2.2
v 1.9 3.3 -2
v 1.9 3.3 -2.1
v 1.9 3.7 -1.8
v 1.9 3.7 -2
v 1.9 3.7 -2.1
v 1.9 3.7 -2.2
v 1.9 3.9 -1.8
v 1.9 3.9 -2.2
v 2 2 -1.9
v 2 2 -2.1
v 2 2.2 -1.9
v 2 2.2 -2.1
v 2 3.9 -1.9
v 2 3.9 -2.1
v 2 4.2 -1.9
v 2 4.2 -2.1
v 2.2 2 -1.9
v 2.2 2 -2.1
v 2.2 2.2 -1.9
v 2.2 2.2 -2.1
v 2.2 3.9 -1.9
v 2.2 3.9 -2.1
v 2.2 4.2 -1.9
v 2.2 4.2 -2.1
v 2.3 2.2 -1.8
v 2.3 2.2 -2.2
v 2.3 2.3 -1.8
v 2.3 2.3 -2.2
v 2.3 3.3 -2
v 2.3 3.3 -2.1
v 2.3 3.7 -1.8
v 2.3 3.7 -2
v 2.3 3.7 -2.1
v 2.3 3.7 -2.2
v 2.3 3.9 -1.8
v 2.3 3.9 -2.2
v 2.4 3.3 -2
v 2.4 3.3 -2.1
v 2.4 3.4 -2
v 2.4 3.4 -2.1
v 2.5 3.4 -2
v 2.5 3.4 -2.1
v 2.5 3.6 -2
v 2.5 3.6 -2.1
v 2.6 3.6 -2
v 2.6 3.6 -2.1
v 2.6 3.7 -2
v 2.6 3.7 -2.1
v 1.9 2.2 -1.8
v 1.9 2.3 -1.8
v 1.9 3.7 -1.8
v 1.9 3.9 -1.8
v 2 3 -1.8
v 2 3.2 -1.8
v 2.2 3 -1.8
v 2.2 3.2 -1.8
v 2.3 2.2 -1.8
v 2.3 2.3 -1.8
v 2.3 3.7 -1.8
v 2.3 3.9 -1.8
v 2 2 -1.9
v 2 2.2 -1.9
v 2 3.9 -1.9
v 2 4.2 -1.9
v 2.2 2 -1.9
v 2.2 2.2 -1.9
v 2.2 3.9 -1.9
v 2.2 4.2 -1.9
v 1.6 3.6 -2
v 1.6 3.7 -2
v 1.7 3.4 -2
v 1.7 3.6 -2
v 1.8 3.3 -2
v 1.8 3.4 -2
v 1.9 3.3 -2
v 1.9 3.7 -2
v 2.3 3.3 -2
v 2.3 3.7 -2
v 2.4 3.3 -2
v 2.4 3.4 -2
v 2.5 3.4 -2
v 2.5 3.6 -2
v 2.6 3.6 -2
v 2.6 3.7 -2
v 1.6 3.6 -2.1
v 1.6 3.7 -2.1
v 1.7 3.4 -2.1
v 1.7 3.6 -2.1
v 1.8 3.3 -2.1
v 1.8 3.4 -2.1
v 1.9 3.3 -2.1
v 1.9 3.7 -2.1
v 2 2 -2.1
v 2 2.2 -2.1
v 2 3.9 -2.1
v 2 4.2 -2.1
v 2.2 2 -2.1
v 2.2 2.2 -2.1
v 2.2 3.9 -2.1
v 2.2 4.2 -2.1
v 2.3 3.3 -2.1
v 2.3 3.7 -2.1
v 2.4 3.3 -2.1
v 2.4 3.4 -2.1
v 2.5 3.4 -2.1
v 2.5 3.6 -2.1
v 2.6 3.6 -2.1
v 2.6 3.7 -2.1
v 1.9 2.2 -2.2
v 1.9 2.3 -2.2
v 1.9 3.7 -2.2
v 1.9 3.9 -2.2
v 2 2.9 -2.2
v 2 3.1 -2.2
v 2.2 2.9 -2.2
v 2.2 3.1 -2.2
v 2.3 2.2 -2.2
v 2.3 2.3 -2.2
v 2.3 3.7 -2.2
v 2.3 3.9 -2.2
v 2 2 -1.9
v 2.2 2 -1.9
v 2 2 -2.1
v 2.2 2 -2.1
v 1.9 2.2 -1.8
v 2.3 2.2 -1.8
v 2 2.2 -1.9
v 2.2 2.2 -1.9
v 2 2.2 -2.1
v 2.2 2.2 -2.1
v 1.9 2.2 -2.2
v 2.3 2.2 -2.2
v 1.8 3.3 -2
v 1.9 3.3 -2
v 2.3 3.3 -2
v 2.4 3.3 -2
v 1.8 3.3 -2.1
v 1.9 3.3 -2.1
v 2.3 3.3 -2.1
v 2.4 3.3 -2.1
v 1.7 3.4 -2
v 1.8 3.4 -2
v 2.4 3.4 -2
v 2.5 3.4 -2
v 1.7 3.4 -2.1
v 1.8 3.4 -2.1
v 2.4 3.4 -2.1
v 2.5 3.4 -2.1
v 1.6 3.6 -2
v 1.7 3.6 -2
v 2.5 3.6 -2
v 2.6 3.6 -2
v 1.6 3.6 -2.1
v 1.7 3.6 -2.1
v 2.5 3.6 -2.1
v 2.6 3.6 -2.1
v 1.6 3.7 -2
v 1.9 3.7 -2
v 2.3 3.7 -2
v 2.6 3.7 -2
v 1.6 3.7 -2.1
v 1.9 3.7 -2.1
v 2.3 3.7 -2.1
v 2.6 3.7 -2.1
v 1.9 3.9 -1.8
v 2.3 3.9 -1.8
v 2 3.9 -1.9
v 2.2 3.9 -1.9
v 2 3.9 -2.1
v 2.2 3.9 -2.1
v 1.9 3.9 -2.2
v 2.3 3.9 -2.2
v 2 4.2 -1.9
v 2.2 4.2 -1.9
v 2 4.2 -2.1
v 2.2 4.2 -2.1

# faces
f 3/5/1 2/5/1 1/5/1
f 4/5/1 2/5/1 3/5/1
f 7/5/1 6/5/1 5/5/1
f 8/5/1 6/5/1 7/5/1
f 11/5/1 10/5/1 9/5/1
f 12/5/1 10/5/1 11/5/1
f 15/3/1 14/3/1 13/3/1
f 16/3/1 14/3/1 15/3/1
f 17/4/1 16/4/1 15/4/1
f 18/4/1 16/4/1 17/4/1
f 19/4/1 17/4/1 15/4/1
f 20/4/1 17/4/1 19/4/1
f 21/4/1 16/4/1 18/4/1
f 22/4/1 16/4/1 21/4/1
f 23/6/1 20/6/1 19/6/1
f 23/6/1 21/6/1 20/6/1
f 23/6/1 22/6/1 21/6/1
f 24/6/1 22/6/1 23/6/1
f 27/3/1 26/3/1 25/3/1
f 28/3/1 26/3/1 27/3/1
f 31/1/1 30/1/1 29/1/1
f 32/1/1 30/1/1 31/1/1
f 33/3/2 34/3/2 35/3/2
f 35/3/2 34/3/2 36/3/2
f 37/1/2 38/1/2 39/1/2
f 39/1/2 38/1/2 40/1/2
f 41/3/2 42/3/2 43/3/2
f 43/3/2 42/3/2 44/3/2
f 43/4/2 44/4/2 45/4/2
f 45/4/2 44/4/2 46/4/2
f 43/4/2 45/4/2 47/4/2
f 47/4/2 45/4/2 48/4/2
f 46/4/2 44/4/2 49/4/2
f 49/4/2 44/4/2 50/4/2
f 47/6/2 48/6/2 51/6/2
f 48/6/2 49/6/2 51/6/2
f 49/6/2 50/6/2 51/6/2
f 51/6/2 50/6/2 52/6/2
f 53/5/2 54/5/2 55/5/2
f 55/5/2 54/5/2 56/5/2
f 57/5/2 58/5/2 59/5/2
f 59/5/2 58/5/2 60/5/2
f 61/5/2 62/5/2 63/5/2
f 63/5/2 62/5/2 64/5/2
f 69/4/3 67/4/3 66/4/3
f 70/4/3 67/4/3 69/4/3
f 71/4/3 69/4/3 66/4/3
f 71/2/3 70/2/3 69/2/3
f 72/4/3 67/4/3 70/4/3
f 72/2/3 70/2/3 71/2/3
f 73/3/3 66/3/3 65/3/3
f 74/4/3 71/4/3 66/4/3
f 74/3/3 66/3/3 73/3/3
f 74/4/3 72/4/3 71/4/3
f 75/4/3 67/4/3 72/4/3
f 75/4/3 72/4/3 74/4/3
f 75/6/3 68/6/3 67/6/3
f 76/6/3 68/6/3 75/6/3
f 81/3/3 78/3/3 77/3/3
f 82/3/3 78/3/3 81/3/3
f 83/1/3 80/1/3 79/1/3
f 84/1/3 80/1/3 83/1/3
f 88/5/3 86/5/3 85/5/3
f 90/5/3 88/5/3 87/5/3
f 91/5/3 90/5/3 89/5/3
f 92/5/3 86/5/3 88/5/3
f 92/5/3 90/5/3 91/5/3
f 92/5/3 88/5/3 90/5/3
f 95/5/3 94/5/3 93/5/3
f 96/5/3 94/5/3 95/5/3
f 97/5/3 94/5/3 96/5/3
f 98/5/3 94/5/3 97/5/3
f 99/5/3 94/5/3 98/5/3
f 100/5/3 94/5/3 99/5/3
f 101/5/4 102/5/4 104/5/4
f 103/5/4 104/5/4 106/5/4
f 105/5/4 106/5/4 107/5/4
f 104/5/4 102/5/4 108/5/4
f 107/5/4 106/5/4 108/5/4
f 106/5/4 104/5/4 108/5/4
f 109/3/4 110/3/4 113/3/4
f 113/3/4 110/3/4 114/3/4
f 111/1/4 112/1/4 115/1/4
f 115/1/4 112/1/4 116/1/4
f 117/5/4 118/5/4 119/5/4
f 119/5/4 118/5/4 120/5/4
f 120/5/4 118/5/4 121/5/4
f 121/5/4 118/5/4 122/5/4
f 122/5/4 118/5/4 123/5/4
f 123/5/4 118/5/4 124/5/4
f 126/4/4 127/4/4 129/4/4
f 129/4/4 127/4/4 130/4/4
f 126/4/4 129/4/4 131/4/4
f 129/2/4 130/2/4 131/2/4
f 130/4/4 127/4/4 132/4/4
f 131/2/4 130/2/4 132/2/4
f 125/3/4 126/3/4 133/3/4
f 126/4/4 131/4/4 134/4/4
f 133/3/4 126/3/4 134/3/4
f 131/4/4 132/4/4 134/4/4
f 132/4/4 127/4/4 135/4/4
f 134/4/4 132/4/4 135/4/4
f 127/6/4 128/6/4 135/6/4
f 135/6/4 128/6/4 136/6/4
f 139/3/5 138/3/5 137/3/5
f 140/3/5 138/3/5 139/3/5
f 143/3/5 142/3/5 141/3/5
f 144/3/5 142/3/5 143/3/5
f 145/3/5 143/3/5 141/3/5
f 146/3/5 142/3/5 144/3/5
f 147/3/5 145/3/5 141/3/5
f 147/3/5 146/3/5 145/3/5
f 148/3/5 142/3/5 146/3/5
f 148/3/5 146/3/5 147/3/5
f 153/5/5 150/5/5 149/5/5
f 154/5/5 150/5/5 153/5/5
f 155/5/5 152/5/5 151/5/5
f 156/5/5 152/5/5 155/5/5
f 161/5/5 158/5/5 157/5/5
f 162/5/5 158/5/5 161/5/5
f 163/5/5 160/5/5 159/5/5
f 164/5/5 160/5/5 163/5/5
f 169/5/5 166/5/5 165/5/5
f 170/5/5 166/5/5 169/5/5
f 171/5/5 168/5/5 167/5/5
f 172/5/5 168/5/5 171/5/5
f 173/5/6 174/5/6 177/5/6
f 177/5/6 174/5/6 178/5/6
f 175/5/6 176/5/6 179/5/6
f 179/5/6 176/5/6 180/5/6
f 181/6/6 182/6/6 183/6/6
f 183/6/6 182/6/6 184/6/6
f 181/6/6 183/6/6 185/6/6
f 184/6/6 182/6/6 186/6/6
f 181/6/6 185/6/6 187/6/6
f 185/6/6 186/6/6 187/6/6
f 186/6/6 182/6/6 188/6/6
f 187/6/6 186/6/6 188/6/6
f 189/1/6 190/1/6 191/1/6
f 191/1/6 190/1/6 192/1/6
